<?xml version="1.0"?>
<svg xmlns="http://www.w3.org/2000/svg" height="40px" width="40px" viewBox="0 0 40 40">
  <g id="svg">
    <path id="Rounded_Rectangle_1106_copy_2" data-name="Rounded Rectangle 1106 copy 2" class="" d="M686,1853a20,20,0,1,1,20-20A20,20,0,0,1,686,1853Zm0-38a18,18,0,1,0,18,18A18,18,0,0,0,686,1815Zm14,19a1,1,0,1,1,1-1A1,1,0,0,1,700,1834Zm-2.75-4a0.974,0.974,0,0,1-.171-0.02,0.23,0.23,0,0,1-.079.02,36.767,36.767,0,0,0-10.969-2A37.253,37.253,0,0,0,675,1830a0.23,0.23,0,0,1-.079-0.02,0.974,0.974,0,0,1-.171.02,2.492,2.492,0,0,1-1.992-4,14.959,14.959,0,0,1,26.484,0A2.492,2.492,0,0,1,697.25,1830Zm0.469-2.66h0a0.4,0.4,0,0,0-.022-0.04h-0.027a12.976,12.976,0,0,0-23.338,0H674.3a0.4,0.4,0,0,0-.022.04h0a0.489,0.489,0,0,0,.444.66l0.025,0.03,0.158-.01c0.032,0,.059-0.02.092-0.02a36.767,36.767,0,0,1,10.969-2A37.253,37.253,0,0,1,697,1828c0.033,0,.06.02,0.092,0.02l0.158,0.01,0.025-.03a0.489,0.489,0,0,0,.444-0.66h0ZM673,1833a1,1,0,1,1-1-1A1,1,0,0,1,673,1833Zm1,0a1,1,0,1,1,1,1A1,1,0,0,1,674,1833Zm3,0a1,1,0,1,1,1,1A1,1,0,0,1,677,1833Zm-3.32,3.14a0.959,0.959,0,0,1,.474-0.14h5.908c2.137,0.53,3.938,1.76,3.938,3.94v4.91a0.945,0.945,0,0,1-.139.47,2.444,2.444,0,0,1-3.691,1.26c-3.471-1.49-6.247-3.27-7.743-6.73A2.452,2.452,0,0,1,673.68,1836.14Zm0.289,2.41,0.036,0.09a0.03,0.03,0,0,0,.01.02l0.12,0.29,0.082,0.22c1.3,3.1,3.694,4.38,6.8,5.68l0.123,0.04,0.185,0.08,0.288,0.04a0.489,0.489,0,0,0,.389-0.47v-4.6a2.043,2.043,0,0,0-1.97-1.97h-5.568a0.492,0.492,0,0,0-.493.49,0.562,0.562,0,0,0,.015.08ZM682,1833a4,4,0,1,1,4,4A4,4,0,0,1,682,1833Zm4,2a2,2,0,1,0-2-2A2,2,0,0,0,686,1835Zm7-2a1,1,0,1,1,1,1A1,1,0,0,1,693,1833Zm4,1a1,1,0,1,1,1-1A1,1,0,0,1,697,1834Zm-5.062,2h5.908a0.959,0.959,0,0,1,.474.14,2.452,2.452,0,0,1,1.253,3.71c-1.5,3.46-4.272,5.24-7.743,6.73a2.444,2.444,0,0,1-3.691-1.26,0.945,0.945,0,0,1-.139-0.47v-4.91C688,1837.76,689.612,1836.42,691.938,1836ZM690,1844.54a0.489,0.489,0,0,0,.389.47l0.288-.04,0.185-.08,0.123-.04c3.1-1.3,5.5-2.58,6.8-5.68l0.082-.22,0.12-.29a0.03,0.03,0,0,0,.01-0.02l0.036-.09-0.015-.01a0.562,0.562,0,0,0,.015-0.08,0.492,0.492,0,0,0-.493-0.49H691.97c-0.974.3-1.97,0.88-1.97,1.97v4.6Z" transform="translate(-666 -1813)" style=""/>
    <circle class="cls-2" cx="20" cy="20" r="3"/>
  </g>
</svg>
