<?xml version="1.0"?>
<svg xmlns="http://www.w3.org/2000/svg" height="40px" width="40px" viewBox="0 0 40 40">
  <g id="svg">
    <path class="" d="M1215,1387h1v1h-1v-1Zm20,32h-6a1,1,0,0,1,0-2h6a3,3,0,0,0,3-3h-8a1,1,0,0,1,0-2h1v-1h1v1h1v-1h1v1h1v-1h1v1h1v-1h1v-3h-1v-1h1v-3h-1v-1h1v-3h-1v-1h1v-3h-1v-1h1v-3h-1v-1h1v-3h-1v-1h1v-1h-24v3h1v1h-3v-6a5,5,0,0,1,5-5h18a5,5,0,0,1,5,5v30A5,5,0,0,1,1235,1419Zm0-38h-18a3,3,0,0,0-3,3h24A3,3,0,0,0,1235,1381Zm-6,30h1v1h-1v-1Zm-12-21h-1v-1h1v1Zm1-2h-1v-1h1v1Zm1,2h-1v-1h1v1Zm1-2h-1v-1h1v1Zm1,2h-1v-1h1v1Zm1-2h-1v-1h1v1Zm1,2h-1v-1h1v1Zm1-2h-1v-1h1v1Zm1,2h-1v-1h1v1Zm1-2h-1v-1h1v1Zm1,9v17a5,5,0,0,1-5,5h-17a5,5,0,0,1-5-5v-17a5,5,0,0,1,5-5h17A5,5,0,0,1,1227,1397Zm-25,0v17a3,3,0,0,0,3,3h17a3,3,0,0,0,3-3v-17a3,3,0,0,0-3-3h-17A3,3,0,0,0,1202,1397Zm21,0a1,1,0,1,1-1-1A1,1,0,0,1,1223,1397Zm-9.5,18a9.5,9.5,0,1,1,9.5-9.5A9.5,9.5,0,0,1,1213.5,1415Zm0-17a7.5,7.5,0,1,0,7.5,7.5A7.5,7.5,0,0,0,1213.5,1398Zm-0.5,4v0.05a3.492,3.492,0,0,0-3,3.45,2.734,2.734,0,0,0,.05.5H1210a1,1,0,0,1-2,0,0.758,0.758,0,0,1,.03-0.16c-0.01-.11-0.03-0.22-0.03-0.34a5.464,5.464,0,0,1,4.52-5.36,0.963,0.963,0,0,1,.48-0.14A1,1,0,0,1,1213,1402Zm-8-4a1,1,0,1,1,1-1A1,1,0,0,1,1205,1398Zm0,15a1,1,0,1,1-1,1A1,1,0,0,1,1205,1413Zm17,0a1,1,0,1,1-1,1A1,1,0,0,1,1222,1413Zm5-23h-1v-1h1v1Zm1-2h-1v-1h1v1Zm-1,3h1v1h-1v-1Zm1-2h1v1h-1v-1Zm1-2h1v1h-1v-1Zm0,4h1v1h-1v-1Zm0,4h1v1h-1v-1Zm0,4h1v1h-1v-1Zm0,4h1v1h-1v-1Zm0,4h1v1h-1v-1Zm1-2h1v1h-1v-1Zm0,4h1v1h-1v-1Zm1-2h1v1h-1v-1Zm1-2h1v1h-1v-1Zm0,4h1v1h-1v-1Zm1-2h1v1h-1v-1Zm1-2h1v1h-1v-1Zm0,4h1v1h-1v-1Zm1-2h1v1h-1v-1Zm2-5h-1v-1h1v1Zm0-4h-1v-1h1v1Zm0-4h-1v-1h1v1Zm0-4h-1v-1h1v1Zm-1,2h-1v-1h1v1Zm0-4h-1v-1h1v1Zm-1,2h-1v-1h1v1Zm-1,2h-1v-1h1v1Zm0-4h-1v-1h1v1Zm-1,2h-1v-1h1v1Zm-1,2h-1v-1h1v1Zm0-4h-1v-1h1v1Zm-2,1h1v1h-1v-1Zm0,4h1v1h-1v-1Zm0,4h1v1h-1v-1Zm0,4h1v1h-1v-1Zm1-2h1v1h-1v-1Zm0,4h1v1h-1v-1Zm1-2h1v1h-1v-1Zm1-2h1v1h-1v-1Zm0,4h1v1h-1v-1Zm1-2h1v1h-1v-1Zm2-5h-1v-1h1v1Zm-1,2h-1v-1h1v1Zm0-4h-1v-1h1v1Zm-1,2h-1v-1h1v1Zm-1,2h-1v-1h1v1Zm-1-2h-1v-1h1v1Zm1-2h-1v-1h1v1Zm3,10h-1v-1h1v1Zm-1-5h1v1h-1v-1Zm2,11h-1v-1h1v1Zm-1-5h1v1h-1v-1Z" transform="translate(-1200 -1379)" style=""/>
    <path id="Rounded_Rectangle_999" data-name="Rounded Rectangle 999" class="" d="M1221,1418h-15a5,5,0,0,1-5-5v-15a5,5,0,0,1,5-5h15a5,5,0,0,1,5,5v15A5,5,0,0,1,1221,1418Zm-7.5-21a8.5,8.5,0,1,0,8.5,8.5A8.506,8.506,0,0,0,1213.5,1397Z" transform="translate(-1200 -1379)" style="opacity: 0.1;"/>
  </g>
</svg>
