<?xml version="1.0"?>
<svg xmlns="http://www.w3.org/2000/svg" height="40px" width="40px" viewBox="0 0 40 40">
  <g id="svg">
    <path id="Rounded_Rectangle_878_copy_4" data-name="Rounded Rectangle 878 copy 4" class="" d="M565,2812H541a8,8,0,0,1-8-8v-28a4,4,0,0,1,4-4h32a4,4,0,0,1,4,4v28A8,8,0,0,1,565,2812Zm6-36a2,2,0,0,0-2-2H537a2,2,0,0,0-2,2v7h36v-7Zm0,9H535v19a6,6,0,0,0,6,6h24a6,6,0,0,0,6-6v-19Zm-3,20H538a1,1,0,0,1,0-2h30A1,1,0,0,1,568,2805Zm0-3H538a1,1,0,0,1,0-2h30A1,1,0,0,1,568,2802Zm0-3H538a1,1,0,0,1,0-2h30A1,1,0,0,1,568,2799Zm0-3H538a1,1,0,0,1,0-2h30A1,1,0,0,1,568,2796Zm-21-17a1,1,0,1,1-1,1A1,1,0,0,1,547,2779Zm4,0h8a1,1,0,0,1,0,2h-8A1,1,0,0,1,551,2779Z" transform="translate(-533 -2772)" style=""/>
    <path class="" d="M553,2773h16.937l2.063,2v29.4l-2,4.6-4.586,2H553v-38Z" transform="translate(-533 -2772)" style="opacity: 0.1;"/>
  </g>
</svg>
