<?xml version="1.0"?>
<svg xmlns="http://www.w3.org/2000/svg" height="40px" width="40px" viewBox="0 0 40 40">
  <g id="svg">
    <path class="" d="M341,2795H311a5,5,0,0,1-5-5v-15a3,3,0,0,1,3-3h34a3,3,0,0,1,3,3v15A5,5,0,0,1,341,2795Zm-29-2h28v-3H312v3Zm32-18a1,1,0,0,0-1-1H309a1,1,0,0,0-1,1v15a3.006,3.006,0,0,0,2,2.82V2790a2,2,0,0,1,2-2h28a2,2,0,0,1,2,2v2.82a3.006,3.006,0,0,0,2-2.82v-15Zm-2,2H310a1,1,0,0,1,0-2h32A1,1,0,0,1,342,2777Zm-20,7h8a1,1,0,0,1,0,2h-8A1,1,0,0,1,322,2784Zm-9,14h26a3,3,0,0,1,3,3v8a3,3,0,0,1-3,3H313a3,3,0,0,1-3-3v-8A3,3,0,0,1,313,2798Zm-1,11a1,1,0,0,0,1,1h26a1,1,0,0,0,1-1v-8a1,1,0,0,0-1-1H313a1,1,0,0,0-1,1v8Zm12,0H313v-8h11v8Zm-2-6h-7v4h7v-4Zm5-2a1,1,0,1,1-1,1A1,1,0,0,1,327,2801Zm0,3a1,1,0,1,1-1,1A1,1,0,0,1,327,2804Zm0,3a1,1,0,1,1-1,1A1,1,0,0,1,327,2807Zm3-6a1,1,0,1,1-1,1A1,1,0,0,1,330,2801Zm0,3a1,1,0,1,1-1,1A1,1,0,0,1,330,2804Zm0,3a1,1,0,1,1-1,1A1,1,0,0,1,330,2807Zm3-6a1,1,0,1,1-1,1A1,1,0,0,1,333,2801Zm0,3a1,1,0,1,1-1,1A1,1,0,0,1,333,2804Zm0,3a1,1,0,1,1-1,1A1,1,0,0,1,333,2807Zm3-6a1,1,0,1,1-1,1A1,1,0,0,1,336,2801Zm0,6a1,1,0,1,1-1,1A1,1,0,0,1,336,2807Z" transform="translate(-306 -2772)" style=""/>
    <path class="" d="M341,2794H326v-21h17a2,2,0,0,1,2,2v15A4,4,0,0,1,341,2794Zm-27,8h9v6h-9v-6Z" transform="translate(-306 -2772)" style="opacity: 0.1;"/>
  </g>
</svg>
