<?xml version="1.0"?>
<svg xmlns="http://www.w3.org/2000/svg" height="40px" width="40.03px" viewBox="0 0 40.03 40">
  <g id="svg">
    <path id="Rounded_Rectangle_1_copy" data-name="Rounded Rectangle 1 copy" class="" d="M1032.83,368.812a3.98,3.98,0,0,1-5.64,0L1024,365.63V387.5a4.5,4.5,0,0,1-9,0V379a1,1,0,0,0-2,0v8.5a4.5,4.5,0,0,1-9,0V365.63l-3.19,3.182a4,4,0,0,1-5.645-5.657L1002.74,355h0.02a7.981,7.981,0,0,1,6.24-3h2a7.935,7.935,0,0,0,8,0,7.981,7.981,0,0,1,6.24,3h0.02l7.57,8.155A4,4,0,0,1,1032.83,368.812ZM1019.5,390a2.5,2.5,0,0,0,2.45-2h-4.9A2.5,2.5,0,0,0,1019.5,390Zm-11,0a2.5,2.5,0,0,0,2.45-2h-4.9A2.5,2.5,0,0,0,1008.5,390Zm2.5-36h-2a5.985,5.985,0,0,0-3.31,1h0.02l-9.16,9.569a2,2,0,1,0,2.828,2.829l4.622-4.611V363a1,1,0,0,1,2,0v23h5v-7a3,3,0,0,1,3-3,3,3,0,0,0,3-3V360A6,6,0,0,0,1011,354Zm20.45,10.569L1022.29,355h0.02a5.985,5.985,0,0,0-3.31-1,5.82,5.82,0,0,0-2.24.458A7.985,7.985,0,0,1,1019,360v13a4.976,4.976,0,0,1-2.52,4.316A2.96,2.96,0,0,1,1017,379v7h5V363a1,1,0,0,1,2,0v-0.213l4.62,4.611A2,2,0,0,0,1031.45,364.569ZM1015,371a1,1,0,1,1,1-1A1,1,0,0,1,1015,371Zm0-5a1,1,0,1,1,1-1A1,1,0,0,1,1015,366Zm0-5a1,1,0,1,1,1-1A1,1,0,0,1,1015,361Z" transform="translate(-994 -352)" style=""/>
    <path class="" d="M1015,354l3-1h3l2,2,9,9,1,1v2l-1,1-2,1-2-1-5-4v23h-7V377l1-2,1-2V359l-1-2-1-2Z" transform="translate(-994 -352)" style="opacity: 0.1;"/>
  </g>
</svg>
