<?xml version="1.0"?>
<svg xmlns="http://www.w3.org/2000/svg" height="40px" width="40px" viewBox="0 0 40 40">
  <g id="svg">
    <path id="Rounded_Rectangle_57_copy_4" data-name="Rounded Rectangle 57 copy 4" class="" d="M304,845a20,20,0,1,1,20-20A20,20,0,0,1,304,845Zm15.049-10.139a17.9,17.9,0,0,0,2.869-8.229l-5.738-4.592-3.359,1.667-2.673,8.028,2.346,2.323Zm2.914-10.806a17.841,17.841,0,0,0-2.794-8.716l-1.94,4.927Zm-11.136-.691L304,818.243l-6.827,5.121L299.715,831h8.57Zm6.788,13.388-4.988-.612-2.41,5.734A18.008,18.008,0,0,0,317.615,836.752ZM304,843a18.073,18.073,0,0,0,3.711-.387l3.107-7.391L308.575,833h-9.15l-2.243,2.222,3.107,7.391A18.073,18.073,0,0,0,304,843Zm-6.217-1.126-2.41-5.734-4.988.612A18.008,18.008,0,0,0,297.783,841.874Zm-8.832-7.013,6.555-.8,2.346-2.323-2.673-8.028-3.359-1.667-5.738,4.592A17.9,17.9,0,0,0,288.951,834.861Zm-0.12-19.522a17.841,17.841,0,0,0-2.794,8.716l4.734-3.789Zm1.415-1.922,2.668,6.775a0.874,0.874,0,0,1,.017.089,0.606,0.606,0,0,1,.015.074l2.958,1.468L303,816.5v-4l-5.631-4.224A18.074,18.074,0,0,0,290.246,813.417ZM304,807a17.977,17.977,0,0,0-4.293.537l4.293,3.22,4.293-3.22A17.977,17.977,0,0,0,304,807Zm6.631,1.277L305,812.5v4l7.1,5.324,2.958-1.468a0.606,0.606,0,0,1,.015-0.074,0.874,0.874,0,0,1,.017-0.089l2.668-6.775A18.074,18.074,0,0,0,310.631,808.277Z" transform="translate(-284 -805)" style=""/>
    <path class="" d="M316,821l3-8,1,1,2,4v3l1,5Zm1,17-4,4-4,1,1-3,2-5h7Zm-18-6-3-9,8-6,8,6-3,9H299Zm-1-25,2-1h7l3,1-6,5Zm-13,13,2-3,2-3,3,7-7,4v-5Zm14,23h-1l-4-2-3-2-3-4h8Z" transform="translate(-284 -805)" style="opacity: 0.1;"/>
  </g>
</svg>
