<?xml version="1.0"?>
<svg xmlns="http://www.w3.org/2000/svg" height="40px" width="40px" viewBox="0 0 40 40">
  <g id="svg">
    <path id="Rounded_Rectangle_9" data-name="Rounded Rectangle 9" class="" d="M550,376v5a6.975,6.975,0,0,1-3.8,6.195l1.714,3.405a0.993,0.993,0,1,1-1.8.835l-1.8-3.567A7,7,0,0,1,543,388H523a7,7,0,0,1-1.312-.132l-1.8,3.567a0.993,0.993,0,1,1-1.8-.835L519.8,387.2A6.975,6.975,0,0,1,516,381v-5a3,3,0,0,1,0-6h13v2H516a1,1,0,0,0,0,2h13v2H518v5a5,5,0,0,0,5,5h20a5,5,0,0,0,5-5v-5h-5v-2h7a1,1,0,0,0,0-2h-7v-2h5v-8.5a1.5,1.5,0,0,0-3,0V363a1,1,0,0,1-2,0v-1.5a3.5,3.5,0,0,1,7,0V370A3,3,0,0,1,550,376Zm-19-8h8a2,2,0,0,1,2,2v10a2,2,0,0,1-2,2h-6a2,2,0,0,1-2-2V370h-2A2,2,0,0,1,531,368Zm2,12h6v-2h-6v2Zm0-4h6v-6h-6v6Zm1-12a2,2,0,1,1,2-2A2,2,0,0,1,534,364Zm-5-6a3,3,0,1,1,3-3A3,3,0,0,1,529,358Zm0-4a1,1,0,1,0,1,1A1,1,0,0,0,529,354Zm-7,13a4,4,0,1,1,4-4A4,4,0,0,1,522,367Zm0-6a2,2,0,1,0,2,2A2,2,0,0,0,522,361Z" transform="translate(-513 -352)" style=""/>
    <path class="" d="M548,385l-3,2H521l-2-1-1-3-1-3v-5h12v8l1,1h12l1-1v-8h6v7Zm-16-16h8v7h-8v-7Z" transform="translate(-513 -352)" style="opacity: 0.1;"/>
  </g>
</svg>
