<?xml version="1.0"?>
<svg xmlns="http://www.w3.org/2000/svg" height="40px" width="40px" viewBox="0 0 40 40">
  <g id="svg">
    <path id="Rounded_Rectangle_1539" data-name="Rounded Rectangle 1539" class="" d="M1090,1649h-34a1.115,1.115,0,0,1-.41-0.09,4.478,4.478,0,0,1-1.99-7.82,3.788,3.788,0,0,1,.55-0.37l18.4-9.61a0.987,0.987,0,0,1,1.34.41c0.03,0.06.18,0.33,0.45,0.76A6.543,6.543,0,0,0,1080,1635a8.206,8.206,0,0,0,4.12-1.1l3.05-2.27c0.02-.02.05-0.02,0.07-0.04A2.98,2.98,0,0,1,1092,1634v13A2.006,2.006,0,0,1,1090,1649Zm0-15a1,1,0,0,0-1-1,0.981,0.981,0,0,0-.6.22l-0.02-.01c-0.01.01-.01,0.02-0.02,0.03l-3.11,2.31a0.526,0.526,0,0,1-.14.12,0.169,0.169,0,0,1-.06.03l-0.08.06a0.992,0.992,0,0,1-.38.17A10.308,10.308,0,0,1,1080,1637a8.469,8.469,0,0,1-7.34-3.69l-2.7,1.4,0.9,1.78a1,1,0,1,1-1.73,1l-0.94-1.86-2.2,1.14,0.87,1.72a1,1,0,1,1-1.73,1l-0.91-1.8-8.93,4.64a2.531,2.531,0,0,0-.75.67h26.56a5.987,5.987,0,0,1,5.9-5h3v-4Zm0,7v-1h-3a4,4,0,0,0-3.86,3H1090v-2Zm0,4h-35.95a2.5,2.5,0,0,0,2.45,2H1090v-2Zm0-18h-34a1.115,1.115,0,0,1-.41-0.09,4.478,4.478,0,0,1-1.99-7.82,3.788,3.788,0,0,1,.55-0.37l18.4-9.61a0.987,0.987,0,0,1,1.34.41c0.03,0.06.18,0.33,0.45,0.76A6.543,6.543,0,0,0,1080,1613a8.206,8.206,0,0,0,4.12-1.1l3.05-2.27c0.02-.02.05-0.02,0.07-0.04A2.98,2.98,0,0,1,1092,1612v13A2.006,2.006,0,0,1,1090,1627Zm0-15a1,1,0,0,0-1-1,0.981,0.981,0,0,0-.6.22l-0.02-.01c-0.01.01-.01,0.02-0.02,0.03l-3.11,2.31a0.526,0.526,0,0,1-.14.12,0.169,0.169,0,0,1-.06.03l-0.08.06a0.992,0.992,0,0,1-.38.17A10.308,10.308,0,0,1,1080,1615a8.469,8.469,0,0,1-7.34-3.69l-2.7,1.4,0.9,1.78a1,1,0,1,1-1.73,1l-0.94-1.86-2.2,1.14,0.87,1.72a1,1,0,1,1-1.73,1l-0.91-1.8-8.93,4.64a2.531,2.531,0,0,0-.75.67h26.56a5.987,5.987,0,0,1,5.9-5h3v-4Zm0,7v-1h-3a4,4,0,0,0-3.86,3H1090v-2Zm0,4h-35.95a2.5,2.5,0,0,0,2.45,2H1090v-2Z" transform="translate(-1052 -1609)" style=""/>
    <path id="Shape_1550_copy" data-name="Shape 1550 copy" class="" d="M1055,1648l-1-1-1-3h29l1-3,1-1,2-1a16.622,16.622,0,0,0,2,0c0.16-.08,3,0,3,0v9h-36Zm-1-23-1-3h29l1-3,1-1,2-1a16.622,16.622,0,0,0,2,0c0.16-.08,3,0,3,0v9h-36Z" transform="translate(-1052 -1609)" style="opacity: 0.1;"/>
  </g>
</svg>
