<?xml version="1.0"?>
<svg xmlns="http://www.w3.org/2000/svg" height="40px" width="40px" viewBox="0 0 40 40">
  <g id="svg">
    <path class="" d="M1035,2445a2.006,2.006,0,0,1-2-2c0-.12.02-0.23,0.03-0.34a11.819,11.819,0,0,0-3.89-1.44A7.893,7.893,0,0,1,1033,2448v0.28a1.968,1.968,0,0,1,1,1.72,2,2,0,0,1-4,0,1.968,1.968,0,0,1,1-1.72V2448a5.936,5.936,0,0,0-3-5.16V2443a1.985,1.985,0,0,1-1.15,1.8c-0.89,9.72-6.32,17.2-12.91,17.2a9.6,9.6,0,0,1-6-2.26,4.322,4.322,0,0,1-1.44.26,4.494,4.494,0,0,1-4.5-4.5,4.446,4.446,0,0,1,.34-1.67,4.464,4.464,0,0,1-2.27-7.22,5,5,0,0,1,0-9.22,4.464,4.464,0,0,1,2.27-7.22,4.446,4.446,0,0,1-.34-1.67,4.494,4.494,0,0,1,4.5-4.5,4.322,4.322,0,0,1,1.44.26,9.6,9.6,0,0,1,6-2.26c6.1,0,11.21,6.43,12.64,15.1a1.989,1.989,0,0,1,1.42,1.9v0.04a14.009,14.009,0,0,1,6.33,2.08,2.1,2.1,0,0,1,.67-0.12A2,2,0,0,1,1035,2445Zm-28.5,13a2.5,2.5,0,1,0,0-5c-0.08,0-.15.02-0.23,0.02a4.413,4.413,0,0,1-1.62.81A2.492,2.492,0,0,0,1006.5,2458Zm-3-6a2.5,2.5,0,1,0,0-5A2.5,2.5,0,0,0,1003.5,2452Zm-4.5-10a3,3,0,1,0,3-3A3,3,0,0,0,999,2442Zm2-7.5a2.5,2.5,0,0,0,2.5,2.5,2.5,2.5,0,1,0,0-5A2.5,2.5,0,0,0,1001,2434.5Zm5.5-8.5a2.492,2.492,0,0,0-1.85,4.17,4.413,4.413,0,0,1,1.62.81c0.08,0,.15.02,0.23,0.02a2.506,2.506,0,0,0,2.61-2.39A2.693,2.693,0,0,0,1006.5,2426Zm18.15,11.54c-1.22-7.78-5.52-13.54-10.65-13.54a7.4,7.4,0,0,0-4.24,1.41,4.879,4.879,0,0,1,1.35,3.2,4.392,4.392,0,0,1-3.39,4.21,4.226,4.226,0,0,1-2.17,5.66,5,5,0,0,1,0,7.04,4.226,4.226,0,0,1,2.17,5.66,4.355,4.355,0,0,1,2.05,7.39A7.445,7.445,0,0,0,1014,2460c5.52,0,10.08-6.67,10.87-15.35a1.992,1.992,0,0,1-.87-1.65v-4A1.956,1.956,0,0,1,1024.65,2437.54Z" transform="translate(-997 -2422)" style=""/>
    <path class="" d="M1007.5,2432a2.5,2.5,0,1,1,2.5-2.5A2.5,2.5,0,0,1,1007.5,2432Zm-0.5,3.5a2.5,2.5,0,1,1-2.5-2.5A2.5,2.5,0,0,1,1007,2435.5Zm-1,7.5a3,3,0,1,1-3-3A3,3,0,0,1,1006,2443Zm-1.5,5a2.5,2.5,0,1,1-2.5,2.5A2.5,2.5,0,0,1,1004.5,2448Zm3,6a2.5,2.5,0,1,1-2.5,2.5A2.5,2.5,0,0,1,1007.5,2454Z" transform="translate(-997 -2422)" style="opacity: 0.1;"/>
  </g>
</svg>
