<?xml version="1.0"?>
<svg xmlns="http://www.w3.org/2000/svg" height="40px" width="40px" viewBox="0 0 40 40">
  <g id="svg">
    <path id="Ellipse_1036_copy_4" data-name="Ellipse 1036 copy 4" class="" d="M340.833,2440.92a3.576,3.576,0,0,1,0,2.16,4.994,4.994,0,1,1-3.694,9.01,3.909,3.909,0,0,1-2.047,2.05A4.948,4.948,0,0,1,336,2457a4.992,4.992,0,0,1-9.916.83,3.541,3.541,0,0,1-2.168,0,4.992,4.992,0,1,1-9.008-3.69,3.909,3.909,0,0,1-2.047-2.05,4.993,4.993,0,1,1-3.694-9.01,3.576,3.576,0,0,1,0-2.16,4.994,4.994,0,1,1,3.694-9.01,3.909,3.909,0,0,1,2.047-2.05A4.948,4.948,0,0,1,314,2427a4.992,4.992,0,0,1,9.916-.83,3.541,3.541,0,0,1,2.168,0,4.992,4.992,0,1,1,9.008,3.69,3.909,3.909,0,0,1,2.047,2.05A4.993,4.993,0,1,1,340.833,2440.92ZM340,2451a3,3,0,1,0-3-3A3,3,0,0,0,340,2451Zm-5.1.9a1.984,1.984,0,0,0,.46-2.06c-0.018-.05-0.026-0.1-0.043-0.14a2,2,0,1,0-3.245,2.2,2.143,2.143,0,0,0,.627.42,0.716,0.716,0,0,1,.14.04A1.983,1.983,0,0,0,334.9,2451.9Zm0.674-6.18a3.983,3.983,0,0,1-1.07-.62,9.374,9.374,0,0,1-.607,1.42,4.2,4.2,0,0,1,1.247.34A5.1,5.1,0,0,1,335.573,2445.72ZM331,2460a3,3,0,1,0-3-3A3,3,0,0,0,331,2460Zm-1.143-7.86a4.057,4.057,0,0,1-.332-1.24,10.093,10.093,0,0,1-1.423.6,4.2,4.2,0,0,1,.619,1.07A5.478,5.478,0,0,1,329.857,2452.14ZM323,2454.03a4.964,4.964,0,0,1,.762,1.53,1.953,1.953,0,0,0,2.47,0,4.964,4.964,0,0,1,.762-1.53c0-.01,0-0.02,0-0.03a2,2,0,0,0-4,0C323,2454.01,323,2454.02,323,2454.03Zm-4,5.97a3,3,0,1,0-3-3A3,3,0,0,0,319,2460Zm2.9-8.5a10.093,10.093,0,0,1-1.423-.6,4.057,4.057,0,0,1-.332,1.24,5.478,5.478,0,0,1,1.136.43A4.2,4.2,0,0,1,321.9,2451.5Zm-6.8.4a1.983,1.983,0,0,0,2.061.46,0.716,0.716,0,0,1,.14-0.04,2.143,2.143,0,0,0,.627-0.42,2,2,0,1,0-3.245-2.2c-0.017.04-.025,0.09-0.043,0.14A1.984,1.984,0,0,0,315.1,2451.9Zm-0.244-5.04a4.2,4.2,0,0,1,1.247-.34,9.374,9.374,0,0,1-.607-1.42,3.983,3.983,0,0,1-1.07.62A5.1,5.1,0,0,1,314.857,2446.86ZM307,2448a3,3,0,1,0,3-3A3,3,0,0,0,307,2448Zm3-15a3,3,0,1,0,3,3A3,3,0,0,0,310,2433Zm3,7h-0.031a4.763,4.763,0,0,1-1.531.76,1.974,1.974,0,0,0,0,2.48,4.763,4.763,0,0,1,1.531.76H313A2,2,0,0,0,313,2440Zm2.5-1.1a9.374,9.374,0,0,1,.607-1.42,4.2,4.2,0,0,1-1.247-.34,5.1,5.1,0,0,1-.43,1.14A3.983,3.983,0,0,1,315.5,2438.9Zm-0.4-6.8a1.984,1.984,0,0,0-.46,2.06c0.018,0.05.026,0.1,0.043,0.14a2,2,0,1,0,3.245-2.2,2.143,2.143,0,0,0-.627-0.42,0.716,0.716,0,0,1-.14-0.04A1.983,1.983,0,0,0,315.1,2432.1Zm3.9-8.1a3,3,0,1,0,3,3A3,3,0,0,0,319,2424Zm1.143,7.86a4.057,4.057,0,0,1,.332,1.24,10.093,10.093,0,0,1,1.423-.6,4.2,4.2,0,0,1-.619-1.07A5.478,5.478,0,0,1,320.143,2431.86Zm6.854-1.89a4.964,4.964,0,0,1-.762-1.53,1.953,1.953,0,0,0-2.47,0,4.964,4.964,0,0,1-.762,1.53c0,0.01,0,.02,0,0.03a2,2,0,0,0,4,0C327,2429.99,327,2429.98,327,2429.97Zm-2,4.03a8,8,0,1,0,8,8A8,8,0,0,0,325,2434Zm4.857-2.14a5.478,5.478,0,0,1-1.136-.43,4.2,4.2,0,0,1-.619,1.07,10.093,10.093,0,0,1,1.423.6A4.057,4.057,0,0,1,329.857,2431.86ZM331,2424a3,3,0,1,0,3,3A3,3,0,0,0,331,2424Zm3.9,8.1a1.983,1.983,0,0,0-2.061-.46,0.716,0.716,0,0,1-.14.04,2.143,2.143,0,0,0-.627.42,2,2,0,1,0,3.245,2.2c0.017-.04.025-0.09,0.043-0.14A1.984,1.984,0,0,0,334.9,2432.1Zm0.244,5.04a4.2,4.2,0,0,1-1.247.34,9.374,9.374,0,0,1,.607,1.42,3.983,3.983,0,0,1,1.07-.62A5.1,5.1,0,0,1,335.143,2437.14ZM335,2442a2,2,0,0,0,2,2h0.031a4.763,4.763,0,0,1,1.531-.76,1.974,1.974,0,0,0,0-2.48,4.763,4.763,0,0,1-1.531-.76H337A2,2,0,0,0,335,2442Zm5-9a3,3,0,1,0,3,3A3,3,0,0,0,340,2433Z" transform="translate(-305 -2422)" style=""/>
    <path id="Ellipse_1038_copy_4" data-name="Ellipse 1038 copy 4" class="" d="M341.5,2440a2.5,2.5,0,1,1,2.5-2.5A2.5,2.5,0,0,1,341.5,2440Zm-9,21a2.5,2.5,0,1,1,2.5-2.5A2.5,2.5,0,0,1,332.5,2461Zm0-30a2.5,2.5,0,1,1,2.5-2.5A2.5,2.5,0,0,1,332.5,2431Zm1.5,13.5a6.5,6.5,0,1,1-6.5-6.5A6.5,6.5,0,0,1,334,2444.5ZM320.5,2431a2.5,2.5,0,1,1,2.5-2.5A2.5,2.5,0,0,1,320.5,2431Zm-9,21a2.5,2.5,0,1,1,2.5-2.5A2.5,2.5,0,0,1,311.5,2452Zm0-12a2.5,2.5,0,1,1,2.5-2.5A2.5,2.5,0,0,1,311.5,2440Zm9,16a2.5,2.5,0,1,1-2.5,2.5A2.5,2.5,0,0,1,320.5,2456Zm21-9a2.5,2.5,0,1,1-2.5,2.5A2.5,2.5,0,0,1,341.5,2447Z" transform="translate(-305 -2422)" style="opacity: 0.1;"/>
  </g>
</svg>
