<?xml version="1.0"?>
<svg xmlns="http://www.w3.org/2000/svg" height="40px" width="40px" viewBox="0 0 40 40">
  <g id="svg">
    <path id="Rounded_Rectangle_48_copy" data-name="Rounded Rectangle 48 copy" class="" d="M659.886,824.911L659,832h-0.05a3.491,3.491,0,0,1-3.45,3,3.244,3.244,0,0,1-.329-0.035A0.9,0.9,0,0,1,655,835h-0.948L655,843.911c0,0.019-.006.036,0,0.054S655,843.988,655,844a0.81,0.81,0,0,1-.02.1,1,1,0,0,1-.056.28c0,0.012-.013.023-0.019,0.035a0.959,0.959,0,0,1-.775.6,0.8,0.8,0,0,1-.12-0.012L654,845h-2a0.978,0.978,0,0,1-.619-0.234,0.917,0.917,0,0,1-.083-0.055c-0.02-.02-0.031-0.047-0.049-0.069a0.977,0.977,0,0,1-.175-0.244l-3.74-9.4H632.666l-3.74,9.4a0.977,0.977,0,0,1-.175.244c-0.018.022-.029,0.049-0.049,0.069a0.917,0.917,0,0,1-.083.055A0.978,0.978,0,0,1,628,845h-2l-0.01,0a0.8,0.8,0,0,1-.12.012,0.959,0.959,0,0,1-.775-0.6c-0.006-.012-0.014-0.023-0.019-0.035a1,1,0,0,1-.056-0.28A0.81,0.81,0,0,1,625,844c0-.012.007-0.022,0.007-0.035s-0.007-.035,0-0.054l0.947-8.92a1,1,0,0,1-.463-0.154,3.383,3.383,0,0,1-.986.163,3.491,3.491,0,0,1-3.45-3H621l-0.886-7.089A3.966,3.966,0,0,1,624,820h0.007a0.87,0.87,0,0,1,0-.153l2.009-10.046c0-.011.009-0.018,0.011-0.029A4.988,4.988,0,0,1,631,805h18a4.988,4.988,0,0,1,4.977,4.773c0,0.011.01,0.018,0.011,0.029L656,819.848a0.87,0.87,0,0,1,0,.153H656A3.966,3.966,0,0,1,659.886,824.911ZM652.674,843h0.277l-0.85-8h-2.61ZM650.5,833a1.5,1.5,0,0,0,1.5-1.5v-2a1.5,1.5,0,0,0-1.5-1.5h-21a1.5,1.5,0,0,0-1.5,1.5v2a1.5,1.5,0,0,0,1.5,1.5h21Zm-21,2h-1.6l-0.85,8h0.277l3.183-8H629.5ZM624,822a1.979,1.979,0,0,0-1.936,2.478L623,831.491s0,0.006,0,.009a1.5,1.5,0,0,0,2.991.094H626V824A2,2,0,0,0,624,822Zm30-1.808-2.009-10.046a0.976,0.976,0,0,1,0-.195A2.987,2.987,0,0,0,650,807.184V807H631a3,3,0,0,0-2.993,2.929,0.925,0.925,0,0,1,.006.217L626,820.192a0.947,0.947,0,0,1-.119.3A3.984,3.984,0,0,1,628,824v2.35a3.464,3.464,0,0,1,1.5-.35h21a3.464,3.464,0,0,1,1.5.35V824a3.984,3.984,0,0,1,2.115-3.508A0.947,0.947,0,0,1,654,820.192ZM656,822a2,2,0,0,0-2,2v7.594h0.009A1.5,1.5,0,0,0,657,831.5s0-.006,0-0.009l0.937-7.013A1.979,1.979,0,0,0,656,822Zm-11.5-4a1.5,1.5,0,1,1,1.5-1.5A1.5,1.5,0,0,1,644.5,818Zm-9,0a1.5,1.5,0,1,1,1.5-1.5A1.5,1.5,0,0,1,635.5,818Z" transform="translate(-620 -805)" style=""/>
    <path id="Shape_11_copy" data-name="Shape 11 copy" class="" d="M653,822v5H627v-3l-1-3h-1l2-11,2-3,1-1h18l3,1,1,1,2,8,2,5Zm-17.5-7a2.5,2.5,0,1,0,2.5,2.5A2.5,2.5,0,0,0,635.5,815Zm9,0a2.5,2.5,0,1,0,2.5,2.5A2.5,2.5,0,0,0,644.5,815ZM627,830h26v4c0.3-.273,1,9,1,9l-1,1h-1l-3.6-9H631.6l-3.6,9-2-1,1-9v-4Z" transform="translate(-620 -805)" style="opacity: 0.1;"/>
  </g>
</svg>
