<?xml version="1.0"?>
<svg xmlns="http://www.w3.org/2000/svg" height="40px" width="40px" viewBox="0 0 40 40">
  <g id="svg">
    <path id="Rounded_Rectangle_79_copy" data-name="Rounded Rectangle 79 copy" class="" d="M581,2096.9v0.1a8,8,0,0,1-15,3.87,8,8,0,0,1-15-3.87v-0.1a6,6,0,1,1,2,0v0.1a6,6,0,0,0,12,0v-4h2v4a6,6,0,0,0,12,0v-0.1A6,6,0,1,1,581,2096.9Zm-25-5.9a4,4,0,1,0-4,4A4,4,0,0,0,556,2091Zm24-4a4,4,0,1,0,4,4A4,4,0,0,0,580,2087Zm-20,0a6,6,0,1,1,6,6A6,6,0,0,1,560,2087Zm6,4a4,4,0,1,0-4-4A4,4,0,0,0,566,2091Zm1-17.08V2078a1,1,0,0,1-2,0v-4.08a6.994,6.994,0,0,1-6-6.92v-2h14v2A6.994,6.994,0,0,1,567,2073.92Zm-6-6.92a5,5,0,0,0,10,0H561Z" transform="translate(-546 -2065)" style=""/>
    <path id="Ellipse_27_copy_2" data-name="Ellipse 27 copy 2" class="" d="M581.5,2096a3.5,3.5,0,1,1,3.5-3.5A3.5,3.5,0,0,1,581.5,2096Zm-14-4a3.5,3.5,0,1,1,3.5-3.5A3.5,3.5,0,0,1,567.5,2092Zm-14,4a3.5,3.5,0,1,1,3.5-3.5A3.5,3.5,0,0,1,553.5,2096Z" transform="translate(-546 -2065)" style="opacity: 0.1;"/>
  </g>
</svg>
