<?xml version="1.0"?>
<svg xmlns="http://www.w3.org/2000/svg" height="40px" width="40px" viewBox="0 0 40 40">
  <g id="svg">
    <path id="Rounded_Rectangle_780" data-name="Rounded Rectangle 780" class="" d="M1062,1238a10,10,0,0,1-4.22-19.06l-0.68-1.94h-1.6a15.466,15.466,0,0,0-13.4,7.75,6.958,6.958,0,1,1-3.1-.75,6.446,6.446,0,0,1,1.17.12,17.65,17.65,0,0,1,2.28-3.26l-4.14-5.86H1036a1,1,0,0,1,0-2h8a1,1,0,0,1,0,2h-3.24l3.13,4.43a17.4,17.4,0,0,1,11.61-4.43h0.9l-2.09-6H1050a1,1,0,0,1,0-2h5a0.987,0.987,0,0,1,.95.65l3.71,10.64A9.995,9.995,0,1,1,1062,1238Zm-21.69-8.5a2,2,0,1,1-1.95-.39,17.617,17.617,0,0,1,.9-3.08,2.3,2.3,0,0,0-.26-0.03,5.068,5.068,0,1,0,2.21.54A16.118,16.118,0,0,0,1040.31,1229.5ZM1062,1220a7.722,7.722,0,0,0-1.68.18l2.05,5.86a2.007,2.007,0,1,1-1.88.66l-2.05-5.86A7.993,7.993,0,1,0,1062,1220Zm-29,20h37.99a1.1,1.1,0,0,1,.4.08,0.607,0.607,0,0,1,.1.07,0.6,0.6,0,0,1,.36.36,0.607,0.607,0,0,1,.07.1,0.98,0.98,0,0,1,0,.77,0.9,0.9,0,0,1-.18.28,0.133,0.133,0,0,0-.03.05l-5,5a1,1,0,0,1-1.42-1.42l3.3-3.29h-5.18l-4.7,4.71a1,1,0,0,1-1.42-1.42l3.3-3.29h-5.18l-4.7,4.71a1,1,0,0,1-1.42-1.42l3.3-3.29h-5.18l-4.7,4.71a1,1,0,0,1-1.42-1.42l3.3-3.29h-5.18l-4.7,4.71a1,1,0,0,1-1.42-1.42l3.3-3.29H1033A1,1,0,0,1,1033,1240Z" transform="translate(-1032 -1207)" style=""/>
    <path id="Rounded_Rectangle_814" data-name="Rounded Rectangle 814" class="" d="M1063.5,1222a7.5,7.5,0,1,1-7.5,7.5A7.5,7.5,0,0,1,1063.5,1222Zm-23,6a4.5,4.5,0,1,1-4.5,4.5A4.494,4.494,0,0,1,1040.5,1228Z" transform="translate(-1032 -1207)" style="opacity: 0.1;"/>
  </g>
</svg>
