<?xml version="1.0"?>
<svg xmlns="http://www.w3.org/2000/svg" height="40px" width="40px" viewBox="0 0 40 40">
  <g id="svg">
    <path id="Rounded_Rectangle_922_copy" data-name="Rounded Rectangle 922 copy" class="" d="M867.712,3614.04C866.4,3623.15,860.763,3630,854,3630h-7c-5.364,0-10.053-3.77-12.7-9.41A9.01,9.01,0,0,1,828,3612v-4a9.01,9.01,0,0,1,6.3-8.59c2.65-5.64,7.339-9.41,12.7-9.41h7c6.763,0,12.4,6.85,13.712,15.96a4.456,4.456,0,0,1,.288,1.54v5A4.456,4.456,0,0,1,867.712,3614.04ZM854,3628c5.05,0,9.36-4.69,11.129-11.32a4.35,4.35,0,0,1-3.909-.32c-1.285,5.1-4.072,9.28-7.661,11.62C853.706,3627.99,853.852,3628,854,3628Zm-7,0a7.956,7.956,0,0,0,.847-0.05,17.361,17.361,0,0,1-5.632-7.21A9.524,9.524,0,0,1,840,3621h-2c-0.138,0-.269-0.02-0.4-0.03-0.2.01-.394,0.03-0.6,0.03-0.094,0-.185-0.01-0.278-0.01C839.1,3625.25,842.812,3628,847,3628Zm0.849-20.54a8.007,8.007,0,0,0-4.268-5.59A8.976,8.976,0,0,1,846,3608v4a8.974,8.974,0,0,1-2.4,6.11,7.975,7.975,0,0,0,4.372-6.48,2.659,2.659,0,0,1-.968-2.13A2.724,2.724,0,0,1,847.849,3607.46ZM830,3609v2a8,8,0,0,0,7.334,7.97A6.99,6.99,0,0,0,844,3612v-4a6.99,6.99,0,0,0-6.666-6.97A8,8,0,0,0,830,3609Zm17-17c-4.188,0-7.9,2.75-10.278,7.01,0.093,0,.184-0.01.278-0.01,0.2,0,.4.02,0.6,0.03,0.136-.01.267-0.03,0.4-0.03h2a9.524,9.524,0,0,1,2.215.26,17.361,17.361,0,0,1,5.632-7.21A7.956,7.956,0,0,0,847,3592Zm-2.909,7.88a10.02,10.02,0,0,1,5.744,7.35A2.6,2.6,0,0,1,851,3609.5a2.646,2.646,0,0,1-1.034,2.18,10,10,0,0,1-5.876,8.44c1.546,3.4,3.845,5.97,6.541,7.15,4.35-1.76,7.752-6.57,8.916-12.66a4.438,4.438,0,0,1-.547-2.11v-5a4.438,4.438,0,0,1,.547-2.11c-1.164-6.09-4.566-10.9-8.916-12.66C847.936,3593.91,845.637,3596.48,844.091,3599.88ZM854,3592c-0.148,0-.294.01-0.441,0.02,3.589,2.34,6.376,6.52,7.661,11.62a4.35,4.35,0,0,1,3.909-.32C863.36,3596.69,859.05,3592,854,3592Zm12,15.5a2.5,2.5,0,0,0-5,0v5a2.5,2.5,0,0,0,5,0v-5Zm-29,7.5a4.983,4.983,0,0,1-4.271-2.43l0.022-.02a0.96,0.96,0,0,1-.189-0.55,0.991,0.991,0,0,1,1.878-.45v-0.01a2.975,2.975,0,0,0,5.127-.01l0.024,0.02a0.993,0.993,0,1,1,1.579,1.16A4.967,4.967,0,0,1,837,3615Zm3-6a1.625,1.625,0,1,1,1-1.5A1.328,1.328,0,0,1,840,3609Zm-6,0a1.625,1.625,0,1,1,1-1.5A1.328,1.328,0,0,1,834,3609Z" transform="translate(-828 -3590)" style=""/>
    <path id="Shape_1048_copy" data-name="Shape 1048 copy" class="" d="M864,3622l-3,4-4,3h-5l1-1,1-1,2-3,2-2,2-4,1-2h3l2-1v4Zm-3-18-1-2-2-4-2-2-2-3-1-1-1-1h5l4,3,3,4,2,3v4l-2-1h-3Zm-20,23-4-3-2-3,4-1,3-1,2,4,3,3,3,2v1h-6Zm3-30-2,4-3-1-4-1,2-3,4-3,3-2h6v1l-3,2Z" transform="translate(-828 -3590)" style="opacity: 0.1;"/>
  </g>
</svg>
