<?xml version="1.0"?>
<svg xmlns="http://www.w3.org/2000/svg" height="40px" width="40px" viewBox="0 0 40 40">
  <g id="svg">
    <path id="Rounded_Rectangle_1109" data-name="Rounded Rectangle 1109" class="" d="M433,1853h-7a1.983,1.983,0,0,1-1.723-1H409.723a1.983,1.983,0,0,1-1.723,1h-7a4,4,0,0,1-4-4v-32a4,4,0,0,1,4-4h7a1.983,1.983,0,0,1,1.723,1h14.554a1.983,1.983,0,0,1,1.723-1h7a4,4,0,0,1,4,4v32A4,4,0,0,1,433,1853Zm-23-3h14v-7.06a12.923,12.923,0,0,1-14,0V1850Zm-2-35h-7a2,2,0,0,0-2,2v32a2,2,0,0,0,2,2h7v-9.63a12.975,12.975,0,0,1,0-18.74V1815Zm16,1H410v5.06a12.923,12.923,0,0,1,14,0V1816Zm-7,5a11,11,0,1,0,11,11A11,11,0,0,0,417,1821Zm18-4a2,2,0,0,0-2-2h-7v7.63a12.975,12.975,0,0,1,0,18.74V1851h7a2,2,0,0,0,2-2v-32Zm-4.5,32a3.5,3.5,0,1,1,3.5-3.5A3.5,3.5,0,0,1,430.5,1849Zm0-5a1.5,1.5,0,1,0,1.5,1.5A1.5,1.5,0,0,0,430.5,1844Zm-11.5-4h-4a1,1,0,0,1,0-2h4A1,1,0,0,1,419,1840Zm-12,5.5a3.5,3.5,0,1,1-3.5-3.5A3.5,3.5,0,0,1,407,1845.5Zm-3.5-1.5a1.5,1.5,0,1,0,1.5,1.5A1.5,1.5,0,0,0,403.5,1844Zm-2-4a1.5,1.5,0,1,1,1.5-1.5A1.5,1.5,0,0,1,401.5,1840Z" transform="translate(-397 -1813)" style=""/>
    <path id="Shape_84_copy" data-name="Shape 84 copy" class="" d="M425,1814h9l2,2v34l-2,2h-8l-1-1v-10l2-3,1-2,1-3v-3l-1-3-1-2-2-3v-8Zm5.5,29a2.5,2.5,0,1,1-2.5,2.5A2.5,2.5,0,0,1,430.5,1843ZM409,1814h-9l-2,2v34l2,2h8l1-1v-10l-2-3-1-2-1-3v-3l1-3,1-2,2-3v-8Zm-5.5,29a2.5,2.5,0,1,1-2.5,2.5A2.5,2.5,0,0,1,403.5,1843Z" transform="translate(-397 -1813)" style="opacity: 0.1;"/>
  </g>
</svg>
