<?xml version="1.0"?>
<svg xmlns="http://www.w3.org/2000/svg" height="40px" width="40px" viewBox="0 0 40 40">
  <g id="svg">
    <path id="Rounded_Rectangle_1378" data-name="Rounded Rectangle 1378" class="" d="M592,4090H576a3,3,0,0,1-3-3v-18a0.9,0.9,0,0,1,.045-0.22,0.85,0.85,0,0,1,.024-0.12,0.911,0.911,0,0,1,.152-0.26c0.016-.02.026-0.05,0.044-0.07a1.285,1.285,0,0,1,.278-0.21,0.054,0.054,0,0,0,.029-0.02h0.014a0.07,0.07,0,0,1,.039-0.02l9.375-4.7V4060a1,1,0,0,1,2,0v3.38l9.375,4.7a0.07,0.07,0,0,1,.039.02h0.014a0.054,0.054,0,0,0,.029.02,1.285,1.285,0,0,1,.278.21c0.018,0.02.028,0.05,0.044,0.07a0.911,0.911,0,0,1,.152.26,0.85,0.85,0,0,1,.024.12,0.9,0.9,0,0,1,.045.22v18A3,3,0,0,1,592,4090Zm1-11v-8H580a1,1,0,0,1,0-2h11.739L584,4065.12l-9,4.51V4087a1,1,0,0,0,1,1h16a1,1,0,0,0,1-1v-8Zm-17-23c0.006,2.76.086,5.33,0.758,6.85,0.092,0.21.171,0.38,0.248,0.54l-1.72,1.04c-1.073-1.96-1.269-5.01-1.285-8.43H565c-0.012,4.06-.261,7.64-1.936,9.46l-0.038.03s0,0.01,0,.01a21.414,21.414,0,0,0-4.655,6.5H570a1,1,0,0,1,0,2H558a1.059,1.059,0,0,1-.31-0.06,20.161,20.161,0,0,0-.69,5.56c0,0.17.023,0.33,0.032,0.5H570a1,1,0,0,1,0,2H557.328a43.057,43.057,0,0,0,2.266,6H569v-0.01h0V4088h1a1,1,0,0,1,0,2H558.294c-1.445-3.03-3.311-6.63-3.294-10.5,0.035-8.1,3.086-11.49,6.332-15.06a0.3,0.3,0,0,1,.024-0.05,8.653,8.653,0,0,0,.732-0.86c0.47-.62.887-3.06,0.908-7.53a3,3,0,0,1,0-6h13A3,3,0,0,1,576,4056Zm0-4H563a1,1,0,0,0,0,2h13A1,1,0,0,0,576,4052Z" transform="translate(-555 -4050)" style=""/>
    <path class="" d="M584,4089v-24l10,4v20H584Zm-8-34H563a2,2,0,0,1,0-4h13A2,2,0,0,1,576,4055Zm-5,26H556v-4l1-4h14v8Z" transform="translate(-555 -4050)" style="opacity: 0.1;"/>
  </g>
</svg>
