<?xml version="1.0"?>
<svg xmlns="http://www.w3.org/2000/svg" height="40px" width="40px" viewBox="0 0 40 40">
  <g id="svg">
    <path id="Rounded_Rectangle_72" data-name="Rounded Rectangle 72" class="" d="M717,836.95V840a3,3,0,0,1-3,3h-1.2a2.986,2.986,0,0,1-5.8-1v-5H695v5a2.986,2.986,0,0,1-5.8,1H688a3,3,0,0,1-3-3v-3.05a4.475,4.475,0,0,1,0-8.9V825a3,3,0,0,1,3-3h1.2a2.986,2.986,0,0,1,5.8,1v5h12v-5a2.986,2.986,0,0,1,5.8-1H714a3,3,0,0,1,3,3v3.05A4.475,4.475,0,0,1,717,836.95ZM685,830a2,2,0,0,0-2,2v1a2,2,0,0,0,2,2v-5Zm4-5a1,1,0,0,0-2,0v15a1,1,0,0,0,2,0V825Zm4-2a1,1,0,0,0-2,0v19a1,1,0,0,0,2,0V823Zm14,7H695v1h5a1,1,0,0,1,0,2h-5v2h12v-5Zm3-8a1,1,0,0,0-1,1v19a1,1,0,0,0,2,0V823A1,1,0,0,0,710,822Zm5,3a1,1,0,0,0-2,0v15a1,1,0,0,0,2,0V825Zm4,7a2,2,0,0,0-2-2v5a2,2,0,0,0,2-2v-1Zm-16-1h1a1,1,0,0,1,0,2h-1A1,1,0,0,1,703,831Zm9-14h-2a3,3,0,0,1-3-3H695a3,3,0,0,1-3,3h-2a3,3,0,0,1-3-3v-6a3,3,0,0,1,3-3h2a3,3,0,0,1,3,3h12a3,3,0,0,1,3-3h2a3,3,0,0,1,3,3v6A3,3,0,0,1,712,817Zm-19-9a1,1,0,0,0-1-1h-2a1,1,0,0,0-1,1v6a1,1,0,0,0,1,1h2a1,1,0,0,0,1-1v-6Zm14,2H695v2h12v-2Zm6-2a1,1,0,0,0-1-1h-2a1,1,0,0,0-1,1v6a1,1,0,0,0,1,1h2a1,1,0,0,0,1-1v-6Z" transform="translate(-681 -805)" style=""/>
    <path id="Rounded_Rectangle_74_copy" data-name="Rounded Rectangle 74 copy" class="" d="M714,842a2,2,0,0,1-2-2v2a2,2,0,0,1-4,0V823a2,2,0,0,1,4,0v2a2,2,0,0,1,4,0v15A2,2,0,0,1,714,842Zm-6-36h6v10h-6V806Zm-16,38a2,2,0,0,1-2-2v-2a2,2,0,0,1-4,0V825a2,2,0,0,1,4,0v-2a2,2,0,0,1,4,0v19A2,2,0,0,1,692,844Zm-4-38h6v10h-6V806Z" transform="translate(-681 -805)" style="opacity: 0.1;"/>
  </g>
</svg>
