<?xml version="1.0"?>
<svg xmlns="http://www.w3.org/2000/svg" height="40px" width="40px" viewBox="0 0 40 40">
  <g id="svg">
    <path id="Ellipse_1040_copy_3" data-name="Ellipse 1040 copy 3" class="" d="M577,2453a9,9,0,1,1-17.309-3.44l0-.03,0.086-.15a8.972,8.972,0,0,1,.98-1.71l2.623-4.56A4.949,4.949,0,0,1,565,2441a4.957,4.957,0,0,1,2-8.9v-5.6a2.5,2.5,0,0,0-5,0v2.5a1,1,0,0,1-2,0v-2.5a4.5,4.5,0,0,1,9,0v4.5h0v1.1a4.957,4.957,0,0,1,2,8.9,4.982,4.982,0,0,1,1.576,2h0.018l2.681,4.71a8.751,8.751,0,0,1,.947,1.66l0.091,0.16,0,0.03A8.932,8.932,0,0,1,577,2453Zm-5.938-16a3.063,3.063,0,1,0-3.062,3A3.051,3.051,0,0,0,571.062,2437Zm3.282,13-3.657-6.37-0.04-.01a2.972,2.972,0,0,0-5.245-.09h-0.027l-3.591,6.27a1.283,1.283,0,0,0-.073.13l-0.024.04H561.7a7,7,0,1,0,12.623.03h0.026Zm-6.629-2.5-2.4,4.22H565.3a2.941,2.941,0,0,0,.717,3.51l-0.008.01a0.982,0.982,0,0,1,.369.76,1,1,0,0,1-1,1,0.982,0.982,0,0,1-.663-0.26h0s0-.01-0.006-0.01a0.434,0.434,0,0,1-.072-0.08,4.9,4.9,0,0,1-1.034-6l2.321-4.02c0.012-.03.033-0.06,0.048-0.09l0.03-.05h0a0.981,0.981,0,0,1,.843-0.49,1,1,0,0,1,1,1,0.986,0.986,0,0,1-.147.49ZM546,2462a8.985,8.985,0,0,1-8.309-12.44l0-.03,0.087-.15a8.972,8.972,0,0,1,.98-1.71l2.623-4.56A4.949,4.949,0,0,1,543,2441a4.957,4.957,0,0,1,2-8.9V2431h0v-4.5a2.5,2.5,0,0,0-5,0v2.5a1,1,0,0,1-2,0v-2.5a4.5,4.5,0,0,1,9,0v4.5h0v1.1a4.957,4.957,0,0,1,2,8.9,4.982,4.982,0,0,1,1.576,2h0.018l2.681,4.71a8.751,8.751,0,0,1,.947,1.66l0.09,0.16,0,0.03A8.985,8.985,0,0,1,546,2462Zm3.062-25a3.063,3.063,0,1,0-3.062,3A3.051,3.051,0,0,0,549.062,2437Zm3.282,13-3.656-6.37-0.041-.01a2.972,2.972,0,0,0-5.245-.09h-0.027l-3.591,6.27a1.283,1.283,0,0,0-.073.13l-0.023.04H539.7a7,7,0,1,0,12.623.03h0.026Zm-6.629-2.5-2.4,4.22H543.3a2.941,2.941,0,0,0,.717,3.51l-0.008.01a0.982,0.982,0,0,1,.369.76,1,1,0,0,1-1,1,0.982,0.982,0,0,1-.663-0.26h0s0-.01-0.006-0.01a0.434,0.434,0,0,1-.072-0.08,4.9,4.9,0,0,1-1.034-6l2.321-4.02c0.012-.03.033-0.06,0.048-0.09l0.03-.05h0a0.981,0.981,0,0,1,.843-0.49,1,1,0,0,1,1,1,0.986,0.986,0,0,1-.147.49Z" transform="translate(-537 -2422)" style=""/>
    <path class="" d="M569,2441a3,3,0,1,1,3-3A3,3,0,0,1,569,2441Zm-22,0a3,3,0,1,1,3-3A3,3,0,0,1,547,2441Z" transform="translate(-537 -2422)" style="opacity: 0.1;"/>
  </g>
</svg>
