<?xml version="1.0"?>
<svg xmlns="http://www.w3.org/2000/svg" height="40px" width="40px" viewBox="0 0 40 40">
  <g id="svg">
    <path id="Ellipse_34_copy" data-name="Ellipse 34 copy" class="" d="M1504,827.5a17.5,17.5,0,0,1-17.5,17.5h-5a17.47,17.47,0,0,1-15.7-25.194,4.971,4.971,0,1,1,6.72-7.306,17.348,17.348,0,0,1,5.55-2.159,5.962,5.962,0,0,1,11.86,0,17.346,17.346,0,0,1,5.56,2.166A4.9,4.9,0,0,1,1499,811a4.989,4.989,0,0,1,3.21,8.818A17.5,17.5,0,0,1,1504,827.5ZM1469,813a2.986,2.986,0,0,0-2.2,5.02,17.64,17.64,0,0,1,4.03-4.371A2.913,2.913,0,0,0,1469,813Zm15-6a3.99,3.99,0,0,0-3.88,3.07c0.46-.036.91-0.07,1.38-0.07h5c0.47,0,.92.034,1.38,0.07A3.99,3.99,0,0,0,1484,807Zm15,6a2.954,2.954,0,0,0-1.84.646,17.675,17.675,0,0,1,4.04,4.378A2.989,2.989,0,0,0,1499,813Zm-12.5-1h-5a15.5,15.5,0,0,0,0,31h5A15.5,15.5,0,0,0,1486.5,812Zm0.5,28h-6c-4.34,0-8.86-2.521-10.61-6.172a2.494,2.494,0,0,1-.29-0.651c-0.02-.06-0.05-0.117-0.07-0.177h0.02a2.734,2.734,0,0,1-.05-0.5,2.48,2.48,0,0,1,3-2.445V830h22v0.055a2.48,2.48,0,0,1,3,2.445,2.734,2.734,0,0,1-.05.5h0.02c-0.02.06-.05,0.117-0.07,0.177a2.494,2.494,0,0,1-.29.651C1495.86,837.479,1491.34,840,1487,840Zm9-7.5a0.5,0.5,0,0,0-.5-0.5h-23a0.5,0.5,0,0,0-.5.5,0.677,0.677,0,0,0,.1.313l0.11,0.281c1.47,2.96,5.26,4.906,8.79,4.906h6c3.53,0,7.32-1.946,8.79-4.906l0.11-.281A0.677,0.677,0,0,0,1496,832.5Zm-4-4.5a4.979,4.979,0,0,1-3.35-1.311,8.9,8.9,0,0,1-9.3,0A4.993,4.993,0,1,1,1476,818a4.883,4.883,0,0,1,.74.075,8.5,8.5,0,0,1,14.52,0A4.883,4.883,0,0,1,1492,818,5,5,0,0,1,1492,828Zm0-8a2.965,2.965,0,0,0-2.02.8c-0.13-2.666-2.75-4.8-5.98-4.8s-5.85,2.133-5.98,4.8a2.965,2.965,0,0,0-2.02-.8,3,3,0,1,0,2.93,3.645,6.635,6.635,0,0,0,10.14,0A3,3,0,1,0,1492,820Z" transform="translate(-1464 -805)" style=""/>
    <path class="" d="M1501.12,819.379a14.544,14.544,0,0,0-5.5-5.5A3.993,3.993,0,1,1,1501.12,819.379ZM1493.5,827a2.5,2.5,0,1,1,2.5-2.5A2.5,2.5,0,0,1,1493.5,827Zm-8.5,0a4.525,4.525,0,1,1,5-4.5A4.771,4.771,0,0,1,1485,827Zm-1-21a5,5,0,0,1,5,5h-10A5,5,0,0,1,1484,806Zm-7.5,21a2.5,2.5,0,1,1,2.5-2.5A2.5,2.5,0,0,1,1476.5,827ZM1465,816a3.99,3.99,0,0,1,7.45-2,13.525,13.525,0,0,0-5.1,5.633A4,4,0,0,1,1465,816Z" transform="translate(-1464 -805)" style="opacity: 0.1;"/>
  </g>
</svg>
