<?xml version="1.0"?>
<svg xmlns="http://www.w3.org/2000/svg" height="40px" width="40px" viewBox="0 0 40 40">
  <g id="svg">
    <path class="" d="M512.9,824L512,832.5a3.5,3.5,0,0,1-3.5,3.5,2.614,2.614,0,0,1-.5-0.08V839a6,6,0,0,1-6,6,5.841,5.841,0,0,1-2.945-.823l-0.211-.083A20.826,20.826,0,0,0,493,843a16.464,16.464,0,0,0-5.656,1.031l-0.381.129A5.589,5.589,0,0,1,484,845a6,6,0,0,1-6-6v-3.054a2.879,2.879,0,0,1-.5.054,3.5,3.5,0,0,1-3.5-3.5l-0.895-8.5H473v-2a3.992,3.992,0,0,1,3.044-3.872A13.989,13.989,0,0,1,490,805h6a13.989,13.989,0,0,1,13.956,13.128A3.992,3.992,0,0,1,513,822v2H512.9ZM480,831v8a4,4,0,0,0,4,4h0.25a3.47,3.47,0,0,0,1.073-.252,13.3,13.3,0,0,1,2.9-1.144A0.98,0.98,0,0,1,488,841v-8a1,1,0,0,1,2,0v8a0.989,0.989,0,0,1-.049.243A19.534,19.534,0,0,1,493,841a16.6,16.6,0,0,1,7.65,1.708c0.014,0.006.024,0,.037,0.011a3.545,3.545,0,0,0,.908.281H502a4,4,0,0,0,4-4v-8h0v-1H486v8a1,1,0,0,1-2,0v-8h-4v1Zm16-24h-6a12.032,12.032,0,0,0-1.5.105L490.417,809h5.166l1.921-1.895A12.032,12.032,0,0,0,496,807Zm3.784,0.622c-0.013.017-.016,0.038-0.03,0.054l-3,2.955a0.977,0.977,0,0,1-.327.261h0a0.987,0.987,0,0,1-.272.075,1.089,1.089,0,0,1-.111.022c-0.017,0-.031.01-0.048,0.01h-6c-0.017,0-.031-0.009-0.048-0.01a1.089,1.089,0,0,1-.111-0.022,0.987,0.987,0,0,1-.272-0.075h0a0.977,0.977,0,0,1-.327-0.261l-3-2.955c-0.014-.016-0.017-0.037-0.03-0.054A12,12,0,0,0,478.05,818h29.9A12,12,0,0,0,499.784,807.622ZM511,822a2,2,0,0,0-2-2H477a2,2,0,0,0-2,2v1l1,9.5a1.5,1.5,0,0,0,1.5,1.5,0.49,0.49,0,0,0,.5-0.224V830a2,2,0,0,1,2-2h26a2,2,0,0,1,2,2v1h0v2.776a0.49,0.49,0,0,0,.5.224,1.5,1.5,0,0,0,1.5-1.5l1-9.5v-1Zm-5,3h-2a1,1,0,0,1,0-2h2A1,1,0,0,1,506,825Zm-8,2a3,3,0,1,1,3-3A3,3,0,0,1,498,827Zm1-4h-2v2h2v-2Zm-11,4a3,3,0,1,1,3-3A3,3,0,0,1,488,827Zm1-4h-2v2h2v-2Zm-7,2h-2a1,1,0,0,1,0-2h2A1,1,0,0,1,482,825Zm3-11h3a1,1,0,0,1,0,2h-3A1,1,0,0,1,485,814Zm13,0h3a1,1,0,0,1,0,2h-3A1,1,0,0,1,498,814Z" transform="translate(-473 -805)" style=""/>
    <path class="" d="M511,833l-1,2h-3v-6H479v6h-1l-2-1-1-2-1-10,1-2,3-1h32l2,2v2Zm-23-11a2,2,0,1,0,2,2A2,2,0,0,0,488,822Zm10,0a2,2,0,1,0,2,2A2,2,0,0,0,498,822Zm-8-12-3-4h12l-3,4h-6Z" transform="translate(-473 -805)" style="opacity: 0.1;"/>
  </g>
</svg>
