<?xml version="1.0"?>
<svg xmlns="http://www.w3.org/2000/svg" height="40px" width="40px" viewBox="0 0 40 40">
  <g id="svg">
    <path id="Rounded_Rectangle_39" data-name="Rounded Rectangle 39" class="" d="M322,375h-6a2,2,0,0,1-1.8-1.14L303,383.452V387a2,2,0,0,1-2,2H287a2,2,0,0,1-2-2v-9a3.992,3.992,0,0,1,3-3.859v-5.418A1.994,1.994,0,0,1,287,367v-4a7,7,0,0,1,5.03-6.714v0l0.1-.021a7.16,7.16,0,0,1,.806-0.171l19.126-4.058,0.007,0.012A2.539,2.539,0,0,1,312.5,352a2.493,2.493,0,0,1,1.274,4.64l-0.012-.018a0.952,0.952,0,0,1-.1.076L301,362.627V367a1.994,1.994,0,0,1-1,1.723V373.4l16.1-7.9a3.9,3.9,0,0,1,.49-0.228l0.336-.156a0.975,0.975,0,0,1,.661-0.084A3.843,3.843,0,0,1,318,365h2a4,4,0,0,1,4,4v4A2,2,0,0,1,322,375Zm-9.269-20.068A0.493,0.493,0,0,0,313,354.5a0.5,0.5,0,0,0-.5-0.5,0.386,0.386,0,0,0-.059.012l0-.012L293.1,358.091A4.993,4.993,0,0,0,289,363h0v4h2v-4a1,1,0,0,1,2,0v4h6v-4.882a0.975,0.975,0,0,1,.285-0.813,0.827,0.827,0,0,1,.073-0.056,1,1,0,0,1,.186-0.142ZM322,369a2,2,0,0,0-2-2h-2.441l-18.09,8.868a0.975,0.975,0,0,1-.375.113l-0.009,0c-0.03,0-.055.017-0.085,0.017a0.984,0.984,0,0,1-.26-0.052c-0.013,0-.027,0-0.041-0.009a0.968,0.968,0,0,1-.286-0.151c-0.017-.012-0.035-0.021-0.052-0.035a0.971,0.971,0,0,1-.2-0.244c-0.01-.017-0.028-0.028-0.038-0.046s0-.013,0-0.019a0.923,0.923,0,0,1-.079-0.263,0.909,0.909,0,0,1-.026-0.126c0-.019-0.011-0.036-0.011-0.055v-6h-8v5h3a1,1,0,0,1,0,2h-3a3,3,0,0,0-3,3v8h2v-6a1,1,0,0,1,2,0v6h10v-4c0-.025.012-0.045,0.014-0.069a0.941,0.941,0,0,1,.045-0.222,1.009,1.009,0,0,1,.055-0.151,0.972,0.972,0,0,1,.119-0.176,0.953,0.953,0,0,1,.118-0.128c0.023-.02.036-0.048,0.061-0.066l12.976-11.02a1,1,0,0,1,1.4.223,0.973,0.973,0,0,1,.173.609H316v1h6v-4Zm-19,21a1,1,0,0,1,0,2H285a1,1,0,0,1,0-2h18Zm12.562-6.688L319.5,377l3.937,6.312-0.015.022A4.455,4.455,0,0,1,324,385.5a4.5,4.5,0,0,1-9,0,4.452,4.452,0,0,1,.581-2.171ZM319.5,388a2.49,2.49,0,0,0,2-3.989l-2-3.261-2.024,3.293A2.492,2.492,0,0,0,319.5,388Z" transform="translate(-284 -352)" style=""/>
    <path class="" d="M322,387v1l-2,1-2-1-2-1v-2l1-3,2-3h1l3,6Zm-11-30-9,4-0.242.242A3.482,3.482,0,0,0,297,364.5V368h-9v-6l1-2,4-3,5-1,11-2,3-1,2,1-1,2Zm-15,22h5a2,2,0,0,1,2,2v6a2,2,0,0,1-2,2h-5a2,2,0,0,1-2-2v-6A2,2,0,0,1,296,379Z" transform="translate(-284 -352)" style="opacity: 0.1;"/>
  </g>
</svg>
