<?xml version="1.0"?>
<svg xmlns="http://www.w3.org/2000/svg" height="40px" width="40px" viewBox="0 0 40 40">
  <g id="svg">
    <path id="Rounded_Rectangle_82_copy" data-name="Rounded Rectangle 82 copy" class="" d="M839.983,2087.08v0.01a0.99,0.99,0,0,1-.362.68,0.022,0.022,0,0,0-.021.01,1.058,1.058,0,0,1-.3.16c-0.015,0-.025.02-0.04,0.02-0.037.01-.074,0-0.111,0.01a0.772,0.772,0,0,1-.152.03h-6v2.28a1.978,1.978,0,0,1,1,1.72,2,2,0,0,1-4,0,1.978,1.978,0,0,1,1-1.72V2088h-5.106a5.994,5.994,0,0,1-1.8,3.37,9.492,9.492,0,0,1,5.774,13.63H809.9a11.177,11.177,0,0,1-.9-4.5,9.492,9.492,0,0,1,6.907-9.13,5.994,5.994,0,0,1-1.8-3.37H801a0.772,0.772,0,0,1-.152-0.03c-0.037-.01-0.074,0-0.111-0.01-0.015,0-.025-0.02-0.04-0.02a1.058,1.058,0,0,1-.3-0.16,0.022,0.022,0,0,0-.021-0.01,0.99,0.99,0,0,1-.362-0.68v-0.01A0.76,0.76,0,0,1,800,2087a0.787,0.787,0,0,1,.035-0.17,0.989,0.989,0,0,1,.011-0.16l8-20.91a0.962,0.962,0,0,1,.43-0.59,0.3,0.3,0,0,1,.073-0.05,1.217,1.217,0,0,1,.195-0.07,0.765,0.765,0,0,1,.212-0.04c0.014,0,.026-0.01.041-0.01h22c0.015,0,.027.01,0.041,0.01a0.765,0.765,0,0,1,.212.04,1.217,1.217,0,0,1,.195.07,0.3,0.3,0,0,1,.073.05,0.962,0.962,0,0,1,.43.59l8,20.91a0.989,0.989,0,0,1,.011.16,0.787,0.787,0,0,1,.035.17A0.76,0.76,0,0,1,839.983,2087.08ZM811.905,2097H814a1,1,0,0,1,0,2h-2.849a7.556,7.556,0,0,0-.151,1.5,9.473,9.473,0,0,0,.395,2.72A0.99,0.99,0,0,1,812,2103h16a0.945,0.945,0,0,1,.5.15,7.389,7.389,0,0,0,.5-2.65,7.556,7.556,0,0,0-.151-1.5H818a1,1,0,0,1,0-2h10.1a7.465,7.465,0,0,0-6.6-4h-3A7.465,7.465,0,0,0,811.905,2097Zm11.954-9h-7.718A3.982,3.982,0,0,0,823.859,2088Zm6.425-21H815.01a0.966,0.966,0,0,1,0,.17L812,2081.2a1.011,1.011,0,1,1-1.987-.37l2.97-13.83h-3.267l-7.271,19h35.11Z" transform="translate(-800 -2065)" style=""/>
    <path class="" d="M809,2087l4-21h14l8,21H809Zm11,5s5.484,0.36,7,2a32.431,32.431,0,0,1,3,4v5l-2,1H817s-0.014-5.67,1-8A40.459,40.459,0,0,1,820,2092Z" transform="translate(-800 -2065)" style="opacity: 0.1;"/>
  </g>
</svg>
