<?xml version="1.0"?>
<svg xmlns="http://www.w3.org/2000/svg" height="40px" width="40px" viewBox="0 0 40 40">
  <g id="svg">
    <path id="full_hd_copy_4" data-name="full hd copy 4" class="" d="M1246,4172h-7.39l1.29,2.57a1.665,1.665,0,0,1,.08.32,0.292,0.292,0,0,0,.02.09V4175a0.758,0.758,0,0,1-.03.16,1.552,1.552,0,0,1-.04.21,1.1,1.1,0,0,1-.09.14,1.127,1.127,0,0,1-.12.18,1.014,1.014,0,0,1-.13.09,0.55,0.55,0,0,1-.17.13,0.031,0.031,0,0,0-.02.01c-0.03.01-.07,0.01-0.1,0.02a1,1,0,0,1-.29.06h-22.02a1,1,0,0,1-.29-0.06c-0.03-.01-0.07-0.01-0.1-0.02a0.031,0.031,0,0,0-.02-0.01,0.55,0.55,0,0,1-.17-0.13,1.014,1.014,0,0,1-.13-0.09,1.127,1.127,0,0,1-.12-0.18,1.1,1.1,0,0,1-.09-0.14,1.552,1.552,0,0,1-.04-0.21,0.758,0.758,0,0,1-.03-0.16v-0.02a0.292,0.292,0,0,0,.02-0.09,1.156,1.156,0,0,1,.08-0.32l1.29-2.57H1210a2.006,2.006,0,0,1-2-2v-21a2.006,2.006,0,0,1,2-2h36a2.006,2.006,0,0,1,2,2v21A2.006,2.006,0,0,1,1246,4172Zm-8.62,2-1.01-2h-16.74l-1.01,2h18.76Zm8.62-25h-36v21h36v-21Zm-27,6h8a0.8,0.8,0,1,0,1.55.08,1.022,1.022,0,0,1,1.36.45l3.09,5.2,3.09-5.2a1.022,1.022,0,0,1,1.36-.45,1,1,0,0,1,.45,1.35l-4,7.03c-0.01.02-.03,0.03-0.04,0.05a0.868,0.868,0,0,1-.17.22,0.834,0.834,0,0,1-.12.08,0.333,0.333,0,0,1-.11.09c-0.03.02-.06,0.01-0.09,0.03a0.847,0.847,0,0,1-.17.04,0.682,0.682,0,0,1-.4,0,0.847,0.847,0,0,1-.17-0.04c-0.03-.02-0.06-0.01-0.09-0.03a0.538,0.538,0,0,1-.12-0.09,0.763,0.763,0,0,1-.11-0.08,0.868,0.868,0,0,1-.17-0.22c-0.01-.02-0.03-0.03-0.04-0.05l-4-7.03a0.924,0.924,0,0,1-.1-0.42,1,1,0,0,1-1,.99h-3v6a1,1,0,0,1-2,0v-6h-3A1,1,0,0,1,1219,4155Zm24.89-13h-2.11v-6.01h2.11a3.132,3.132,0,0,1,2.24.83,2.8,2.8,0,0,1,.86,2.12,3.086,3.086,0,0,1-.86,2.24A3.125,3.125,0,0,1,1243.89,4142Zm-0.09-4.92h-0.86v3.83h0.86a1.856,1.856,0,0,0,2-1.97A1.775,1.775,0,0,0,1243.8,4137.08Zm-5.15,2.22h-2.55v2.7h-1.16v-6.01h1.16v2.21h2.55v-2.21h1.15V4142h-1.15v-2.7Zm-11.61-3.31h1.17v4.92h2.86V4142h-4.03v-6.01Zm-5.59,0h1.17v4.92h2.86V4142h-4.03v-6.01Zm-4.31,6.02a2.391,2.391,0,0,1-1.74-.68,2.627,2.627,0,0,1-.67-1.92v-3.42h1.15v3.47a1.268,1.268,0,1,0,2.52,0v-3.47h1.16v3.42a2.59,2.59,0,0,1-.68,1.92A2.359,2.359,0,0,1,1217.14,4142.01Zm-6.97-3.74h2.3v1.08h-2.3V4142h-1.16v-6.01h4.13v1.09h-2.97v1.19Z" transform="translate(-1208 -4136)" style=""/>
    <path class="" d="M1209,4149l38-1v23h-38v-22Z" transform="translate(-1208 -4136)" style="opacity: 0.1;"/>
  </g>
</svg>
