<?xml version="1.0"?>
<svg xmlns="http://www.w3.org/2000/svg" height="40px" width="40px" viewBox="0 0 40 40">
  <g id="svg">
    <path id="Rounded_Rectangle_954" data-name="Rounded Rectangle 954" class="" d="M656,975a3.978,3.978,0,0,1-3.159-1.573l-0.029.01-4.6-5.968a4.926,4.926,0,0,1-5.5-.713c-0.012-.011-0.015-0.025-0.027-0.035A0.994,0.994,0,0,1,642,967h-4a0.991,0.991,0,0,1-.684-0.278,4.91,4.91,0,0,1-5.519.75l-4.61,5.965-0.028-.01A3.986,3.986,0,0,1,620,971l1.031-14.219,0.071,0a7.966,7.966,0,0,1,13.355-4.6A0.968,0.968,0,0,1,635,952h10a0.971,0.971,0,0,1,.543.182,7.966,7.966,0,0,1,13.355,4.6l0.071,0L660,971A4,4,0,0,1,656,975Zm-13-21h-6v3h6v-3Zm14.371,8.82a8.076,8.076,0,0,1-2,1.874L657,959h0a6.3,6.3,0,0,0,0-1l-0.1-.983A5.964,5.964,0,0,0,646.557,954H645v3a2,2,0,0,1-2,2h-6a2,2,0,0,1-2-2v-3h-1.557a5.964,5.964,0,0,0-10.344,3.017L623,958a6.3,6.3,0,0,0,0,1l1.627,5.694a8.059,8.059,0,0,1-2-1.874L622,971a2,2,0,0,0,3.684,1.071l4.529-5.84a5.029,5.029,0,0,1-.458-0.617L634,966a6.063,6.063,0,0,0,1.648-.23l1.822-.6A0.969,0.969,0,0,1,638,965h4a0.974,0.974,0,0,1,.537.178l1.784,0.592A6.291,6.291,0,0,0,646,966l4.244-.386a5.1,5.1,0,0,1-.451.612l4.522,5.844A2,2,0,0,0,658,971ZM654,959a1,1,0,1,1,1-1A1,1,0,0,1,654,959Zm-3,3a1,1,0,1,1,1-1A1,1,0,0,1,651,962Zm0-6a1,1,0,1,1,1-1A1,1,0,0,1,651,956Zm-3,3a1,1,0,1,1,1-1A1,1,0,0,1,648,959Zm0,4a2,2,0,1,1-2-2A2,2,0,0,1,648,963Zm-8,0a1,1,0,1,1,1-1A1,1,0,0,1,640,963Zm-6,2a2,2,0,1,1,2-2A2,2,0,0,1,634,965Zm-2-6h-2v2a1,1,0,0,1-2,0v-2h-2a1,1,0,0,1,0-2h2v-2a1,1,0,0,1,2,0v2h2A1,1,0,0,1,632,959Zm21,31H627a2,2,0,0,1-2-2V978a2,2,0,0,1,2-2h26a2,2,0,0,1,2,2v10A2,2,0,0,1,653,990Zm0-6H635a1,1,0,1,1,0-2h18v-4H627v4h4a1,1,0,1,1,0,2h-4v4h26v-4Z" transform="translate(-620 -950)" style=""/>
    <path class="" d="M626,977h28v12H626V977Zm10-24h8v5h-8v-5Z" transform="translate(-620 -950)" style="opacity: 0.1;"/>
  </g>
</svg>
