<?xml version="1.0"?>
<svg xmlns="http://www.w3.org/2000/svg" height="40px" width="40px" viewBox="0 0 40 40">
  <g id="svg">
    <path id="Ellipse_1518_copy_3" data-name="Ellipse 1518 copy 3" class="" d="M825,1625a2,2,0,0,1-2,2h-7a2,2,0,0,1-2-2v-1.89a9.948,9.948,0,0,0-4.256,1.21l-0.006-.01c-2.165,1.63-5.752,2.69-10.238,2.69a26.856,26.856,0,0,1-10.807-2.29l0-.02a2.974,2.974,0,0,1-.486-5.08h0l4.421-3.16A3.494,3.494,0,0,1,794.5,1610a2.593,2.593,0,0,1,1.684.83c0.84,0.78.734,0.96,1.59,0.04a2.411,2.411,0,0,1,1.726-.87,3.5,3.5,0,0,1,1.4,6.71l0.623,0.64a3.412,3.412,0,0,0,.307.27A1.98,1.98,0,0,0,803,1618a2.069,2.069,0,0,0,.827-0.18l0.006,0.01h0l19.8-8.75a1,1,0,0,1,1.377.92h0.139a12.322,12.322,0,0,1-.152,13.22V1625Zm-9-1.98V1625h7v-2h-7v0.02ZM794.5,1612a1.5,1.5,0,0,0,0,3c0.828,0,1.5-1.5,1.5-1.5S795.328,1612,794.5,1612Zm6.5,1.5a1.5,1.5,0,0,0-1.5-1.5c-0.828,0-1.5,1.5-1.5,1.5s0.672,1.5,1.5,1.5A1.5,1.5,0,0,0,801,1613.5Zm22.583-2.21-18.984,8.39a0.971,0.971,0,0,1-.168.03A4,4,0,0,1,803,1620a3.952,3.952,0,0,1-2.822-1.18c-0.008,0-.018-0.01-0.026-0.01l-2.286-2.35s-0.068-.06-0.213-0.2A0.953,0.953,0,0,0,797,1616a0.938,0.938,0,0,0-.443.11,0.013,0.013,0,0,0-.013.01l-7.128,5.08,0,0.01a0.975,0.975,0,0,0-.419.79,1,1,0,0,0,.577.9,24.359,24.359,0,0,0,9.923,2.1c3.986,0,7.1-.79,8.871-2h0c0.067-.05.129-0.09,0.206-0.15a14.536,14.536,0,0,1,7.078-1.82c0.112-.01.226-0.03,0.343-0.03h7a2.039,2.039,0,0,1,.856.2A10.258,10.258,0,0,0,823.583,1611.29ZM825,1647a2,2,0,0,1-2,2h-7a2,2,0,0,1-2-2v-1.89a9.948,9.948,0,0,0-4.256,1.21l-0.006-.01c-2.165,1.63-5.752,2.69-10.238,2.69a26.856,26.856,0,0,1-10.807-2.29l0-.02a2.974,2.974,0,0,1-.486-5.08h0l4.421-3.16A3.494,3.494,0,0,1,794.5,1632a2.593,2.593,0,0,1,1.684.83c0.84,0.78.734,0.96,1.59,0.04a2.411,2.411,0,0,1,1.726-.87,3.5,3.5,0,0,1,1.4,6.71l0.623,0.64a3.412,3.412,0,0,0,.307.27A1.98,1.98,0,0,0,803,1640a2.069,2.069,0,0,0,.827-0.18l0.006,0.01h0l19.8-8.75a1,1,0,0,1,1.377.92h0.139a12.322,12.322,0,0,1-.152,13.22V1647Zm-9-1.98V1647h7v-2h-7v0.02ZM794.5,1634a1.5,1.5,0,0,0,0,3c0.828,0,1.5-1.5,1.5-1.5S795.328,1634,794.5,1634Zm6.5,1.5a1.5,1.5,0,0,0-1.5-1.5c-0.828,0-1.5,1.5-1.5,1.5s0.672,1.5,1.5,1.5A1.5,1.5,0,0,0,801,1635.5Zm22.583-2.21-18.984,8.39a0.971,0.971,0,0,1-.168.03A4,4,0,0,1,803,1642a3.952,3.952,0,0,1-2.822-1.18c-0.008,0-.018-0.01-0.026-0.01l-2.286-2.35s-0.068-.06-0.213-0.2A0.953,0.953,0,0,0,797,1638a0.938,0.938,0,0,0-.443.11,0.013,0.013,0,0,0-.013.01l-7.128,5.08,0,0.01a0.975,0.975,0,0,0-.419.79,1,1,0,0,0,.577.9,24.359,24.359,0,0,0,9.923,2.1c3.986,0,7.1-.79,8.871-2h0c0.067-.05.129-0.09,0.206-0.15a14.536,14.536,0,0,1,7.078-1.82c0.112-.01.226-0.03,0.343-0.03h7a2.039,2.039,0,0,1,.856.2A10.258,10.258,0,0,0,823.583,1633.29Z" transform="translate(-787 -1609)" style=""/>
    <path id="Shape_1531_copy_2" data-name="Shape 1531 copy 2" class="" d="M824,1622h-9l-4,1-4,2-5,1h-7l-3-1-0.787-.22,0.212-.78s7.01-5.57,7.916-5.87c0.592-.19,3.714,3.98,7.2,2.85,3.823-1.23,12.17-4.14,14.457-4.98s5-2,5-2a40.275,40.275,0,0,1,0,5A4.638,4.638,0,0,1,824,1622Zm-24.659,18.13c0.592-.19,3.714,3.98,7.2,2.85,3.823-1.23,12.17-4.14,14.457-4.98s5-2,5-2a40.275,40.275,0,0,1,0,5,4.638,4.638,0,0,1-2,3h-9l-4,1-4,2-5,1h-7l-3-1-0.787-.22,0.212-.78S798.435,1640.43,799.341,1640.13Z" transform="translate(-787 -1609)" style="opacity: 0.1;"/>
  </g>
</svg>
