<?xml version="1.0"?>
<svg xmlns="http://www.w3.org/2000/svg" height="40px" width="40px" viewBox="0 0 40 40">
  <g id="svg">
    <path id="Rounded_Rectangle_859" data-name="Rounded Rectangle 859" class="" d="M519,1247h-7a1,1,0,0,1,0-2h7a1,1,0,0,0,1-1v-3h-7a1,1,0,0,1,0-2h7v-26H495v12h-2v-15a3,3,0,0,1,3-3h23a3,3,0,0,1,3,3v34A3,3,0,0,1,519,1247Zm1-37a1,1,0,0,0-1-1H496a1,1,0,0,0-1,1v1h25v-1Zm-12.5,9.03-7.5,1.73V1225h-2v-5c0-.02.009-0.03,0.01-0.05a0.98,0.98,0,0,1,.725-0.96l8.559-1.97a2.127,2.127,0,0,1,.412,0l8.559,1.97a0.98,0.98,0,0,1,.725.96c0,0.02.01,0.03,0.01,0.05v9c0,0.02-.011.04-0.012,0.06a0.94,0.94,0,0,1,0,.13,0.749,0.749,0,0,1-.048.12,1.368,1.368,0,0,1-.063.15,1.074,1.074,0,0,1-.122.18,0.726,0.726,0,0,1-.112.11,0.652,0.652,0,0,1-.167.11,0.668,0.668,0,0,1-.187.08l-0.114.03a0.993,0.993,0,0,1-.173.03,0.909,0.909,0,0,1-.432-0.11L513,1229.3v-2.06l2,0.46v-6.94ZM511,1229v2a2,2,0,0,1-2,2h0.846L509,1244a3,3,0,0,1-3,3H487a3,3,0,0,1-3-3l-0.846-11H484a2,2,0,0,1-2-2v-2a2,2,0,0,1,2-2h25A2,2,0,0,1,511,1229Zm-25,15a1,1,0,0,0,1,1h19a1,1,0,0,0,1-1l0.611-11H485.389Zm-2-13h25v-2H484v2Zm18.986,11.19a0.749,0.749,0,0,1-.048.12,1.368,1.368,0,0,1-.063.15,1.074,1.074,0,0,1-.122.18,0.726,0.726,0,0,1-.112.11,0.652,0.652,0,0,1-.167.11,0.668,0.668,0,0,1-.187.08l-0.114.03a0.993,0.993,0,0,1-.173.03,0.9,0.9,0,0,1-.4-0.09l-5.1-.89-5.1.89a0.9,0.9,0,0,1-.4.09,0.993,0.993,0,0,1-.173-0.03l-0.114-.03a0.668,0.668,0,0,1-.187-0.08,0.652,0.652,0,0,1-.167-0.11,0.726,0.726,0,0,1-.112-0.11,1.074,1.074,0,0,1-.122-0.18,1.368,1.368,0,0,1-.063-0.15,0.749,0.749,0,0,1-.048-0.12,0.94,0.94,0,0,1,0-.13c0-.02-0.012-0.04-0.012-0.06v-5c0-.02.009-0.03,0.01-0.05a0.98,0.98,0,0,1,.725-0.96l5.561-.97a2.086,2.086,0,0,1,.408,0l5.561,0.97a0.98,0.98,0,0,1,.725.96c0,0.02.01,0.03,0.01,0.05v5c0,0.02-.011.04-0.012,0.06A0.94,0.94,0,0,1,502.986,1242.19ZM501,1237.81l-4.5-.79-4.5.79v2.96l4.3-.75a2.086,2.086,0,0,1,.408,0l4.3,0.75v-2.96Z" transform="translate(-482 -1207)" style=""/>
    <path class="" d="M511,1246l1-6h9v6H511Zm-17-38h27v4H494v-4Zm14,10,8,2v9l-3-1v-1l-2-2H499v-5Zm-1,28H486l-2-14h25Zm-5-9-5-1-6,1v5l6-1,5,1v-5Z" transform="translate(-482 -1207)" style="opacity: 0.1;"/>
  </g>
</svg>
