<?xml version="1.0"?>
<svg xmlns="http://www.w3.org/2000/svg" height="40px" width="40px" viewBox="0 0 40 40">
  <g id="svg">
    <path id="Rounded_Rectangle_952_copy" data-name="Rounded Rectangle 952 copy" class="" d="M979,989h-1v-0.056a3.5,3.5,0,0,1-6-2.444v-18a3.492,3.492,0,0,1,6.65-1.5H979a7.992,7.992,0,0,1,2,.262V967a10,10,0,0,0-10-10h-8a10,10,0,0,0-10,10v0.262a7.992,7.992,0,0,1,2-.262h0.35a3.492,3.492,0,0,1,6.65,1.5v18a3.5,3.5,0,0,1-6,2.444V989h-1a8,8,0,0,1-8-8v-6a7.986,7.986,0,0,1,4-6.916V968h0v-6a12,12,0,0,1,12-12h8a12,12,0,0,1,12,12v6.084A7.986,7.986,0,0,1,987,975v6A8,8,0,0,1,979,989Zm-2-20.5a1.5,1.5,0,0,0-3,0v18a1.5,1.5,0,0,0,3,0v-18Zm-20,18a1.5,1.5,0,0,0,3,0v-18a1.5,1.5,0,0,0-3,0v18ZM949,975v6a5.962,5.962,0,0,0,2,4.443V981a1,1,0,0,1,2,0v5.633a5.952,5.952,0,0,0,2,.367h0.05a3.588,3.588,0,0,1-.05-0.5V969A6,6,0,0,0,949,975Zm22-23h-8a10,10,0,0,0-9.816,8.111A11.978,11.978,0,0,1,963,955h8a11.978,11.978,0,0,1,9.816,5.111A10,10,0,0,0,971,952Zm14,23a6,6,0,0,0-6-6v17.5a3.588,3.588,0,0,1-.05.5H979a5.952,5.952,0,0,0,2-.367V981a1,1,0,0,1,2,0v4.443A5.962,5.962,0,0,0,985,981v-6Z" transform="translate(-947 -950)" style=""/>
    <path class="" d="M956,968v20h-3l-2-1-2-2-1-4v-7a19.128,19.128,0,0,1,1-3c0.174,0.03,1.885-2.089,2-2a4.648,4.648,0,0,0,1-1h4Zm22,0h3l2,1,2,3,1,3v8l-1,2a3.945,3.945,0,0,1-1,1c-0.562.349-2,1-2,1l-3,1h-1V968Z" transform="translate(-947 -950)" style="opacity: 0.1;"/>
  </g>
</svg>
