<?xml version="1.0"?>
<svg xmlns="http://www.w3.org/2000/svg" height="40px" width="40px" viewBox="0 0 40 40">
  <g id="svg">
    <path id="Rounded_Rectangle_1391" data-name="Rounded Rectangle 1391" class="" d="M847.831,4061.26c-0.019.03-.049,0.04-0.071,0.07a3.987,3.987,0,0,1-.2.35,6.959,6.959,0,0,1-6.386,3.31l-6.331,17.27a0.946,0.946,0,0,1-.347.44l0.514,3.6a0.963,0.963,0,0,1-.1.55,2.471,2.471,0,0,1-2.4,3.15h-19a2.5,2.5,0,0,1-2.5-2.5,2.527,2.527,0,0,1,.086-0.62,0.95,0.95,0,0,1-.094-0.53l2.034-14.3A8.976,8.976,0,0,1,808,4064v-5a9,9,0,0,1,9-9h2a9,9,0,0,1,9,9v4h1.5a2.5,2.5,0,0,1,2.449,2,0.816,0.816,0,0,1,.033.09l0.382,2.68,4.285-6.1a7.128,7.128,0,0,1,.532-6.79c0.074-.11.155-0.22,0.235-0.32a0.6,0.6,0,0,1,.038-0.1,1,1,0,0,1,1.384-.29l8.7,5.7A1.006,1.006,0,0,1,847.831,4061.26ZM826,4059a7,7,0,0,0-7-7h-2a7,7,0,0,0-7,7v5a6.909,6.909,0,0,0,3.331,5.9l0.687-4.83a1.1,1.1,0,0,1,.08-0.23,2.49,2.49,0,0,1,2.4-1.84H826v-4Zm4,6H816l-0.02.04a0.994,0.994,0,0,1,.019.31L814.342,4077H827a1,1,0,0,1,0,2H814.057l-0.426,3H828a1,1,0,0,1,0,2H813.346L813,4086.44V4088h20v-1.62l-3-21.02a0.987,0.987,0,0,1,.02-0.32Zm2.891,5.49a0.826,0.826,0,0,1-.12.13l1.179,8.26,5.312-14.49c-0.181-.09-0.368-0.16-0.544-0.27a6.149,6.149,0,0,1-.856-0.71Zm5.737-14.07c-1.014,2.03-.76,4.75,1.18,6.02s4.323,0.29,5.759-1.46Z" transform="translate(-808 -4050)" style=""/>
    <path class="" d="M845,4062l-3,2s-1.446-.41-2-3a7.444,7.444,0,0,1,1-5l6,5Zm-11,19-2-6,7-12,2,1Zm-22,7,3-24h8v25H813Z" transform="translate(-808 -4050)" style="opacity: 0.1;"/>
  </g>
</svg>
