<?xml version="1.0"?>
<svg xmlns="http://www.w3.org/2000/svg" height="40px" width="40px" viewBox="0 0 40 40">
  <g id="svg">
    <path id="Rounded_Rectangle_90_copy_2" data-name="Rounded Rectangle 90 copy 2" class="" d="M1088,2096a6,6,0,0,1-6-6v-15.71l2,1.38V2090a4,4,0,0,0,8,0v-19a3.99,3.99,0,0,0-6.9-2.74l-1.58-1.24A5.993,5.993,0,0,1,1094,2071v19A6,6,0,0,1,1088,2096Zm1-16.5v6.5a1,1,0,0,1-2,0v-6.5a9.494,9.494,0,0,0-18.87-1.5h3.88a1.014,1.014,0,0,1,.84.41l2.82,3.83,3.09,1.91a2,2,0,0,1-.76,3.85,1.858,1.858,0,0,1-.58-0.1,1,1,0,0,1-.42.1h-0.8a11,11,0,1,1-18.4,0H1057a1,1,0,0,1-.42-0.1,1.858,1.858,0,0,1-.58.1,2,2,0,0,1-.76-3.85l3.03-1.88,2.87-3.86a1.032,1.032,0,0,1,.85-0.41H1066v-9.28a1.968,1.968,0,0,1-1-1.72,2,2,0,0,1,4,0,1.968,1.968,0,0,1-1,1.72v4.32A11.491,11.491,0,0,1,1089,2079.5Zm-22,23.5a8.977,8.977,0,0,0,6.68-15H1068v5.59l1.71,1.71a0.993,0.993,0,1,1-1.4,1.41l-1.31-1.31-1.31,1.31a0.993,0.993,0,0,1-1.4-1.41l1.71-1.71V2088h-5.68A8.977,8.977,0,0,0,1067,2103Zm-4.52-23-2.64,3.55v0.01a1.111,1.111,0,0,1-.31.3l-3.45,2.14h21.84l-3.22-2H1064a1,1,0,0,1,0-2h8.99l-1.48-2h-9.03Z" transform="translate(-1054 -2065)" style=""/>
    <path id="Rounded_Rectangle_92" data-name="Rounded Rectangle 92" class="" d="M1069,2086a8,8,0,1,1-8,8A8,8,0,0,1,1069,2086Zm19,9v-29a5,5,0,0,1,5,5v19A5,5,0,0,1,1088,2095Z" transform="translate(-1054 -2065)" style="opacity: 0.1;"/>
  </g>
</svg>
