<?xml version="1.0"?>
<svg xmlns="http://www.w3.org/2000/svg" height="40px" width="40px" viewBox="0 0 40 40">
  <g id="svg">
    <path class="" d="M344,3178l-2,16a2,2,0,0,1-2,2H330a2,2,0,0,1-2-2l-2-16h0v-2l2-17a2,2,0,0,1,2-2h10a2,2,0,0,1,2,2l2,17v2h0Zm-14,16h10l2-16H328Zm10-35H330l-2,17h14Zm-22,37H308a2,2,0,0,1-2-2l-2-16a2,2,0,0,1,2-2v-2a2,2,0,0,1,2-2v-10a0.418,0.418,0,0,1,.015-0.07c-0.117-1.53,1.2-3.5,3.385-4.79,2.624-1.55,5.467-1.54,6.351.03a2.323,2.323,0,0,1,.2,1.57,0.924,0.924,0,0,1,.053.26v13a2,2,0,0,1,2,2v2a2,2,0,0,1,2,2l-2,16A2,2,0,0,1,318,3196Zm-2.076-37.68c-0.35-.6-1.942-0.34-3.557.58s-2.64,2.16-2.291,2.75,1.942,0.34,3.557-.58S316.273,3158.92,315.924,3158.32Zm0.076,3.47a9.169,9.169,0,0,1-1.4,1.04,6.978,6.978,0,0,1-4.6,1.08V3172h6v-10.21Zm2,12.21H308v2h10v-2Zm-12,4,2,16h10l2-16H306Z" transform="translate(-304 -3156)" style=""/>
    <path id="Shape_1037_copy_2" data-name="Shape 1037 copy 2" class="" d="M333,3158h8l1,14,1,2H332Zm-14,37h-8l-1-15h11l-1,2Zm-7-32-3-1v-1l3-3,4-1,1,1-2,4Zm30,19-1,13h-8l-1-15h11Z" transform="translate(-304 -3156)" style="opacity: 0.1;"/>
  </g>
</svg>
