<?xml version="1.0"?>
<svg xmlns="http://www.w3.org/2000/svg" height="40px" width="40px" viewBox="0 0 40 40">
  <g id="svg">
    <path id="Rounded_Rectangle_1492_copy_2" data-name="Rounded Rectangle 1492 copy 2" class="" d="M340,1647a2,2,0,0,1-2,2H302a2,2,0,0,1-2-2v-9a10,10,0,0,1,10-10h1a6.841,6.841,0,0,0,4.612-1.98l-0.549-.37a0.833,0.833,0,1,1,1.175-1.18l0.5,0.34a14.879,14.879,0,0,0,1.484-2.27l-0.754-.3a1.263,1.263,0,0,1-.2-1.42,0.91,0.91,0,0,1,1.276-.28l0.538,0.21a23.4,23.4,0,0,0,.937-2.83l-0.257-.09a0.928,0.928,0,0,1-.544-1.16,0.857,0.857,0,0,1,1.1-.58l0.135,0.05a29.167,29.167,0,0,0,.546-5.64c0-.17-0.012-0.33-0.014-0.5h0.291a1.983,1.983,0,0,1,1.723-1h14.985a2,2,0,0,1,2,2v5a1.977,1.977,0,0,1-.092.57,0.956,0.956,0,0,1,.107.43v25a1.011,1.011,0,0,1-.1.42,1.948,1.948,0,0,1,.1.58v4Zm-2.015-36h-9v5h9v-5Zm0.015,7h-9.015a1.238,1.238,0,0,1-.193-0.02l-0.811,3.27a1.019,1.019,0,0,1-1.228.72,1,1,0,0,1-.731-1.22l1-4.01a1.123,1.123,0,0,1,.068-0.14,1.956,1.956,0,0,1-.1-0.6v-5H323v1h-0.044a30.071,30.071,0,0,1-.62,4.82l0.816,0.29a0.929,0.929,0,0,1,.545,1.16,0.86,0.86,0,0,1-1.1.57l-0.716-.25a24.717,24.717,0,0,1-.978,2.87l0.517,0.21a1.3,1.3,0,0,1,.347,1.42,0.864,0.864,0,0,1-1.2.39l-0.526-.21a17.427,17.427,0,0,1-1.7,2.62l1,0.68a0.833,0.833,0,0,1-1.175,1.18l-0.929-.63a10.367,10.367,0,0,1-3.015,2.14l2.786,5.53a1,1,0,0,1-.79,1.18,1.01,1.01,0,0,1-1.191-.78l-2.692-5.34c-0.113.02-.224,0.05-0.339,0.07V1630h-2a8,8,0,0,0-8,8v3h22.047c0.483-7.82,6.536-14,13.953-14h0v-9Zm0,11h0c-6.316,0-11.481,5.29-11.953,12H338v-12Zm0,14H302v4h2v-1a1,1,0,0,1,2,0v1h3v-1a1,1,0,0,1,2,0v1h3v-1a1,1,0,0,1,2,0v1h3v-1a1,1,0,0,1,2,0v1h3v-1a1,1,0,0,1,2,0v1h3v-1a1,1,0,0,1,2,0v1h3v-1a1,1,0,0,1,2,0v1h2v-4Z" transform="translate(-300 -1609)" style=""/>
    <path class="" d="M325,1642l1-5,3-5,5-4h5v14H325Zm3-32h11v7H328v-7Z" transform="translate(-300 -1609)" style="opacity: 0.1;"/>
  </g>
</svg>
