<?xml version="1.0"?>
<svg xmlns="http://www.w3.org/2000/svg" height="40px" width="40px" viewBox="0 0 40 40">
  <g id="svg">
    <path class="" d="M342.963,3617.74C341,3624.93,336.391,3630,331,3630h-9c-4.8,0-9.1-2.66-12.032-6.85A10,10,0,0,1,304,3614v-8a10,10,0,0,1,5.968-9.15C312.9,3592.66,317.2,3590,322,3590h9c5.391,0,10,5.07,11.963,12.26A1.989,1.989,0,0,1,344,3604v12A1.989,1.989,0,0,1,342.963,3617.74ZM331,3628c4.318,0,8.052-4.07,9.852-10h-3.209a18.862,18.862,0,0,1-7.6,9.93A7.527,7.527,0,0,0,331,3628Zm-9,0v-0.06c0.332,0.03.662,0.06,1,.06a10.85,10.85,0,0,0,2.139-.21,15.32,15.32,0,0,1-3.41-3.83c-0.24.02-.483,0.04-0.729,0.04h-6v-0.05c-0.329.03-.662,0.05-1,0.05-0.274,0-.543-0.02-0.811-0.04A12.177,12.177,0,0,0,322,3628Zm5-13.5a6.063,6.063,0,0,1,0-9V3604a6,6,0,0,0-6-6h-1.018a9.964,9.964,0,0,1,4.018,8v8a9.964,9.964,0,0,1-4.018,8H321a6,6,0,0,0,6-6v-1.5Zm1.5-1.5c0.828,0,1.5-1.34,1.5-3s-0.672-3-1.5-3-1.5,1.34-1.5,3S327.672,3613,328.5,3613Zm-22.5-7v8a8,8,0,0,0,16,0v-8A8,8,0,0,0,306,3606Zm17-14c-0.338,0-.668.03-1,0.06V3592a12.177,12.177,0,0,0-8.811,4.04c0.268-.02.537-0.04,0.811-0.04,0.338,0,.671.02,1,0.05V3596h6c0.246,0,.489.02,0.729,0.04a15.32,15.32,0,0,1,3.41-3.83A10.85,10.85,0,0,0,323,3592Zm0.757,4.5A7.986,7.986,0,0,1,329,3604v1.07c1.694,0.35,3,2.41,3,4.93s-1.306,4.58-3,4.93V3616a7.986,7.986,0,0,1-5.243,7.5,11.47,11.47,0,0,0,3.743,3.54c3.645-1.6,6.6-5.08,8.194-9.54A1.972,1.972,0,0,1,335,3616v-12a1.972,1.972,0,0,1,.694-1.5c-1.6-4.46-4.549-7.94-8.194-9.54A11.47,11.47,0,0,0,323.757,3596.5ZM331,3592a7.527,7.527,0,0,0-.953.07,18.862,18.862,0,0,1,7.6,9.93h3.209C339.052,3596.07,335.318,3592,331,3592Zm11,12h-5v12h5v-12Zm-22,6c0,6.08-2.91,11-6.5,11s-6.5-4.92-6.5-11,2.91-11,6.5-11S320,3603.92,320,3610Zm-6.5-9c-2.485,0-4.5,4.03-4.5,9s2.015,9,4.5,9,4.5-4.03,4.5-9S315.985,3601,313.5,3601Z" transform="translate(-304 -3590)" style=""/>
    <path class="" d="M339,3617v-14h4v14h-4Zm-10.5-3c-1.381,0-2.5-1.79-2.5-4s1.119-4,2.5-4,2.5,1.79,2.5,4S329.881,3614,328.5,3614Zm-14.5,9a9,9,0,0,1-9-9v-8a9,9,0,0,1,18,0v8A9,9,0,0,1,314,3623Zm-0.5-23c-3.038,0-5.5,4.48-5.5,10s2.462,10,5.5,10a3.648,3.648,0,0,0,2.463-1.07,1.815,1.815,0,0,1-.463.07c-1.933,0-3.5-3.13-3.5-7s1.567-7,3.5-7c1.777,0,3.241,2.65,3.467,6.08,0.021-.35.033-0.71,0.033-1.08C319,3604.48,316.538,3600,313.5,3600Z" transform="translate(-304 -3590)" style="opacity: 0.1;"/>
  </g>
</svg>
