<?xml version="1.0"?>
<svg xmlns="http://www.w3.org/2000/svg" height="41px" width="40px" viewBox="0 0 40 41">
  <g id="svg">
    <path opacity="0.1" fill-rule="evenodd" clip-rule="evenodd" d="M29 8H23C20.7909 8 19 9.79086 19 12V17H25.5L28 15L30.5 14L29 8ZM8 30C10.7614 30 13 27.7614 13 25C13 22.2386 10.7614 20 8 20C5.23858 20 3 22.2386 3 25C3 27.7614 5.23858 30 8 30ZM39 25C39 27.7614 36.7614 30 34 30C31.2386 30 29 27.7614 29 25C29 22.2386 31.2386 20 34 20C36.7614 20 39 22.2386 39 25ZM14 11L15.2 13H12.8676H5H3.5H3C1.89543 13 1 12.1046 1 11C1 9.89543 1.89543 9 3 9H10.5433C11.9434 9 13.2407 9.73457 13.9611 10.9351L14 11Z" fill="" style=""/>
    <path fill-rule="evenodd" clip-rule="evenodd" d="M21 2C21 1.44772 21.4477 1 22 1H25.1577C26.9931 1 28.5931 2.24919 29.0382 4.02986L29.7771 6.98533C30.326 6.3801 31.1186 6 32 6H34C34.5523 6 35 6.44772 35 7V11C35 11.5523 34.5523 12 34 12H32C31.6445 12 31.3034 11.9382 30.9869 11.8246L31.2808 13H32.9639C35.6565 13 37.66 13.4835 39.6617 15.2503C40.0758 15.6157 40.1152 16.2477 39.7497 16.6617C39.3843 17.0758 38.7523 17.1152 38.3383 16.7497C36.8144 15.4047 35.3435 15 32.9639 15H31.7808L32.2897 17.0356C32.5233 17.0121 32.7602 17 33 17C36.866 17 40 20.134 40 24C40 27.866 36.866 31 33 31C29.134 31 26 27.866 26 24C26 21.0722 27.7975 18.5642 30.3491 17.5194L29.7469 15.1108C28.8198 15.4048 28.1892 16.2699 27.3453 17.5348L23.1621 24.5141C22.9814 24.8155 22.6558 25 22.3043 25H17H13.9291C13.4439 28.3923 10.5265 31 7 31C3.13401 31 0 27.866 0 24C0 20.134 3.13401 17 7 17C10.5265 17 13.4439 19.6077 13.9291 23H15.9378C15.3749 18.4548 11.0167 14 4 14C3.91367 14 3.8299 13.9891 3.75 13.9685C3.67009 13.9891 3.58632 14 3.5 14H3C1.34315 14 0 12.6569 0 11C0 9.34314 1.34315 8 3 8H10.5433C12.2946 8 13.9175 8.91886 14.8185 10.4206L15.7662 12H18C18 9.23858 20.2386 7 23 7H27.7192L27.098 4.51493C26.8754 3.6246 26.0754 3 25.1577 3H22C21.4477 3 21 2.55228 21 2ZM4 12C3.91367 12 3.8299 12.0109 3.75 12.0315C3.67009 12.0109 3.58632 12 3.5 12H3C2.44772 12 2 11.5523 2 11C2 10.4477 2.44772 10 3 10H10.5433C11.5921 10 12.564 10.5503 13.1036 11.4496L13.4338 12H4ZM11.8487 14H15.2H18V16H14.4923C13.7226 15.246 12.8376 14.5711 11.8487 14ZM16.1462 18C17.1564 19.5288 17.7789 21.2406 17.9511 23H21.7379L24.7348 18H21H19H16.1462ZM21 16H25.5C25.645 16 25.7828 16.0309 25.9072 16.0864C26.6539 14.9728 27.6345 13.6326 29.2613 13.1681L28.2192 9H23C21.3431 9 20 10.3431 20 12V13V16H21ZM7 19C9.41896 19 11.4367 20.7178 11.9 23H8.73244C8.38663 22.4022 7.74028 22 7 22C5.89543 22 5 22.8954 5 24C5 25.1046 5.89543 26 7 26C7.74028 26 8.38663 25.5978 8.73244 25H11.9C11.4367 27.2822 9.41896 29 7 29C4.23858 29 2 26.7614 2 24C2 21.2386 4.23858 19 7 19ZM28 24C28 22.0116 29.1606 20.2944 30.8414 19.4887L31.6098 22.5622C31.2338 22.9258 31 23.4356 31 24C31 25.1046 31.8954 26 33 26C34.1046 26 35 25.1046 35 24C35 23.0861 34.3871 22.3154 33.5499 22.0766L32.7819 19.0047C32.8542 19.0016 32.9269 19 33 19C35.7614 19 38 21.2386 38 24C38 26.7614 35.7614 29 33 29C30.2386 29 28 26.7614 28 24ZM21 20C21 20.5523 20.5523 21 20 21C19.4477 21 19 20.5523 19 20C19 19.4477 19.4477 19 20 19C20.5523 19 21 19.4477 21 20ZM31 9C31 8.44772 31.4477 8 32 8H33V10H32C31.4477 10 31 9.55228 31 9Z" fill="" style=""/>
    <path fill-rule="evenodd" clip-rule="evenodd" d="M1 33H38.99C39.1271 33.0015 39.2628 33.0286 39.39 33.08C39.4256 33.0999 39.4591 33.1234 39.49 33.15C39.5727 33.18 39.6479 33.2277 39.7101 33.2899C39.7723 33.3521 39.82 33.4273 39.85 33.51C39.8766 33.5409 39.9001 33.5744 39.92 33.61C39.972 33.7317 39.9988 33.8627 39.9988 33.995C39.9988 34.1273 39.972 34.2583 39.92 34.38C39.878 34.4837 39.8169 34.5787 39.74 34.66C39.7264 34.6743 39.7161 34.6913 39.71 34.71L34.71 39.71C34.6167 39.8032 34.5061 39.8772 34.3843 39.9276C34.2625 39.9781 34.1319 40.0042 34 40.0042C33.8681 40.0042 33.7375 39.9781 33.6157 39.9276C33.4939 39.8772 33.3833 39.8032 33.29 39.71C33.1968 39.6167 33.1228 39.5061 33.0724 39.3843C33.0219 39.2625 32.9958 39.1319 32.9958 39C32.9958 38.8681 33.0219 38.7375 33.0724 38.6157C33.1228 38.4939 33.1968 38.3833 33.29 38.29L36.59 35H31.41L26.71 39.71C26.5217 39.8983 26.2663 40.0042 26 40.0042C25.7337 40.0042 25.4783 39.8983 25.29 39.71C25.1017 39.5217 24.9958 39.2663 24.9958 39C24.9958 38.7337 25.1017 38.4783 25.29 38.29L28.59 35H23.41L18.71 39.71C18.5217 39.8983 18.2663 40.0042 18 40.0042C17.7337 40.0042 17.4783 39.8983 17.29 39.71C17.1017 39.5217 16.9958 39.2663 16.9958 39C16.9958 38.7337 17.1017 38.4783 17.29 38.29L20.59 35H15.41L10.71 39.71C10.6167 39.8032 10.5061 39.8772 10.3843 39.9276C10.2625 39.9781 10.1319 40.0042 10 40.0042C9.86814 40.0042 9.73755 39.9781 9.61572 39.9276C9.4939 39.8772 9.38328 39.8032 9.29004 39.71C9.1968 39.6167 9.12285 39.5061 9.07239 39.3843C9.02193 39.2625 8.99585 39.1319 8.99585 39C8.99585 38.8681 9.02193 38.7375 9.07239 38.6157C9.12285 38.4939 9.1968 38.3833 9.29004 38.29L12.59 35H7.41003L2.70996 39.71C2.52166 39.8983 2.2663 40.0042 2 40.0042C1.7337 40.0042 1.47834 39.8983 1.29004 39.71C1.10174 39.5217 0.99585 39.2663 0.99585 39C0.99585 38.7337 1.10174 38.4783 1.29004 38.29L4.58997 35H1C0.734784 35 0.480383 34.8947 0.292847 34.7072C0.10531 34.5196 0 34.2652 0 34C0 33.7348 0.10531 33.4804 0.292847 33.2928C0.480383 33.1053 0.734784 33 1 33Z" fill="" style=""/>
  </g>
</svg>
