<?xml version="1.0"?>
<svg xmlns="http://www.w3.org/2000/svg" height="40px" width="40px" viewBox="0 0 40 40">
  <g id="svg">
    <path class="" d="M583,3170h-2a7,7,0,0,1-6.92-6H571v3a3,3,0,0,1,3,3v2h2.559a15.921,15.921,0,0,1,.441,23.57V3196H555v-0.43a15.921,15.921,0,0,1,.441-23.57H558v-2a3,3,0,0,1,3-3v-7a2,2,0,0,1,2-2h6a2,2,0,0,1,2,2v2h3.08a7,7,0,0,1,6.92-6h2A7,7,0,0,1,583,3170Zm-26.757,4a13.906,13.906,0,0,0,0,20h19.514a13.906,13.906,0,0,0,0-20H556.243ZM569,3160h-6v1a2,2,0,0,1,0,4v2h6v-7Zm-8,9a1,1,0,0,0-1,1v2h12v-2a1,1,0,0,0-1-1H561Zm22-11h-2a5,5,0,0,0,0,10h2A5,5,0,0,0,583,3158Zm-13,19a5,5,0,0,1,5,5v4a5,5,0,0,1-5,5h-8a5,5,0,0,1-5-5v-4a5,5,0,0,1,5-5h8Zm-11,5v4a3,3,0,0,0,3,3h8a3,3,0,0,0,3-3v-4a3,3,0,0,0-3-3h-8A3,3,0,0,0,559,3182Z" transform="translate(-550 -3156)" style=""/>
    <path id="Rounded_Rectangle_909" data-name="Rounded Rectangle 909" class="" d="M584.5,3169h-1a4.5,4.5,0,0,1,0-9h1A4.5,4.5,0,0,1,584.5,3169ZM569,3190h-7.859a3.951,3.951,0,0,1-.141-1v-4a4,4,0,0,1,4-4h8a4.118,4.118,0,0,1,1,.14V3187l-2,2Z" transform="translate(-550 -3156)" style="opacity: 0.1;"/>
  </g>
</svg>
