<?xml version="1.0"?>
<svg xmlns="http://www.w3.org/2000/svg" height="40px" width="40px" viewBox="0 0 40 40">
  <g id="svg">
    <path id="Rounded_Rectangle_938_copy_4" data-name="Rounded Rectangle 938 copy 4" class="" d="M828,990H813a4,4,0,0,1-4-4V964a4,4,0,0,1,4-4h15a4,4,0,0,1,4,4v22A4,4,0,0,1,828,990Zm2-26a2,2,0,0,0-2-2H813a2,2,0,0,0-2,2v10h19V964Zm0,12H811v10a2,2,0,0,0,2,2h15a2,2,0,0,0,2-2V976Zm-3,10h-1a1,1,0,0,1,0-2h1A1,1,0,0,1,827,986Zm0-3h-1a1,1,0,0,1,0-2h1A1,1,0,0,1,827,983Zm0-3h-1a1,1,0,0,1,0-2h1A1,1,0,0,1,827,980Zm-4,6h-1a1,1,0,0,1,0-2h1A1,1,0,0,1,823,986Zm0-3h-1a1,1,0,0,1,0-2h1A1,1,0,0,1,823,983Zm0-3h-1a1,1,0,0,1,0-2h1A1,1,0,0,1,823,980Zm-4,6h-1a1,1,0,0,1,0-2h1A1,1,0,0,1,819,986Zm0-3h-1a1,1,0,0,1,0-2h1A1,1,0,0,1,819,983Zm0-3h-1a1,1,0,0,1,0-2h1A1,1,0,0,1,819,980Zm-4,6h-1a1,1,0,0,1,0-2h1A1,1,0,0,1,815,986Zm0-3h-1a1,1,0,0,1,0-2h1A1,1,0,0,1,815,983Zm0-3h-1a1,1,0,0,1,0-2h1A1,1,0,0,1,815,980Zm4-17h3a1,1,0,0,1,0,2h-3A1,1,0,0,1,819,963Zm-17-10h4a1,1,0,0,1,0,2h-4A1,1,0,0,1,802,953Zm-4.724,16.285,7.009-7.009a1,1,0,0,1,1.408,1.408l-7.009,7.009A1,1,0,0,1,797.276,969.285ZM806,984a2,2,0,1,1-2-2A2,2,0,0,1,806,984Zm-8.724-8.307a1,1,0,0,1,0-1.408l7.009-7.009a1,1,0,0,1,1.408,1.408l-7.009,7.009A1,1,0,0,1,797.276,975.693ZM814,954a2,2,0,0,0-2-2H796a2,2,0,0,0-2,2v32a2,2,0,0,0,2,2h11.367a5.982,5.982,0,0,0,1.19,2H796a4,4,0,0,1-4-4V954a4,4,0,0,1,4-4h16a4,4,0,0,1,4,4v4h-2v-4Z" transform="translate(-792 -950)" style=""/>
    <path class="" d="M810,964l1-2,2-1h16l2,2v12H810V964Z" transform="translate(-792 -950)" style="opacity: 0.1;"/>
  </g>
</svg>
