<?xml version="1.0"?>
<svg xmlns="http://www.w3.org/2000/svg" height="40px" width="40px" viewBox="0 0 40 40">
  <g id="svg">
    <path id="Rounded_Rectangle_16" data-name="Rounded Rectangle 16" class="" d="M1083,388v2a2,2,0,0,1-2,2h-36a2,2,0,0,1-2-2v-2a2,2,0,0,1,1.05-1.75A1.036,1.036,0,0,1,1044,386V357.723a1.983,1.983,0,0,1-1-1.723v-2a2,2,0,0,1,2-2h36a2,2,0,0,1,2,2v2a1.983,1.983,0,0,1-1,1.723V386a1.036,1.036,0,0,1-.05.25A2,2,0,0,1,1083,388Zm-2-34h-36v2h36v-2Zm-35,4v28h5V358h-5Zm18,2a5,5,0,0,1,5,5,1,1,0,0,1-1,1h-10a1,1,0,0,1-1-1,5,5,0,0,1,5-5h0v-2h-9v28h20V358h-9v2h0Zm-2,2a3.006,3.006,0,0,0-2.82,2h7.64a3.006,3.006,0,0,0-2.82-2h-2Zm13-4v28h5V358h-5Zm6,30h-36v2h36v-2Zm-15-3a1,1,0,0,1-1-1v-1a1,1,0,0,1,2,0v1A1,1,0,0,1,1066,385Zm0-5a1,1,0,0,1-1-1v-1a1,1,0,0,1,2,0v1A1,1,0,0,1,1066,380Zm0-5a1,1,0,0,1-1-1v-1a1,1,0,0,1,2,0v1A1,1,0,0,1,1066,375Zm0-5a1,1,0,0,1-1-1v-1a1,1,0,0,1,2,0v1A1,1,0,0,1,1066,370Zm-3,15a1,1,0,0,1-1-1v-1a1,1,0,0,1,2,0v1A1,1,0,0,1,1063,385Zm0-5a1,1,0,0,1-1-1v-1a1,1,0,0,1,2,0v1A1,1,0,0,1,1063,380Zm0-5a1,1,0,0,1-1-1v-1a1,1,0,0,1,2,0v1A1,1,0,0,1,1063,375Zm0-5a1,1,0,0,1-1-1v-1a1,1,0,0,1,2,0v1A1,1,0,0,1,1063,370Zm-3,15a1,1,0,0,1-1-1v-1a1,1,0,0,1,2,0v1A1,1,0,0,1,1060,385Zm0-5a1,1,0,0,1-1-1v-1a1,1,0,0,1,2,0v1A1,1,0,0,1,1060,380Zm0-5a1,1,0,0,1-1-1v-1a1,1,0,0,1,2,0v1A1,1,0,0,1,1060,375Zm0-5a1,1,0,0,1-1-1v-1a1,1,0,0,1,2,0v1A1,1,0,0,1,1060,370Z" transform="translate(-1043 -352)" style=""/>
    <path class="" d="M1077,387V357h4v30h-4Zm-22,0V357h8v3l-4,2v3h9v-2l-1-1-3-1v-4s10.03-.076,10,0,0,30,0,30h-19Zm-7-30h4v30h-4V357Z" transform="translate(-1043 -352)" style="opacity: 0.1;"/>
  </g>
</svg>
