<?xml version="1.0"?>
<svg xmlns="http://www.w3.org/2000/svg" height="40px" width="40px" viewBox="0 0 40 40">
  <g id="svg">
    <path id="smart_copy_4" data-name="smart copy 4" class="" d="M1515,4172h-7.37l1.27,2.51a1,1,0,0,1-.4,1.36,1.023,1.023,0,0,1-1.37-.39l-1.25-2.49-1,1.49a1,1,0,1,1-1.75-.97l1.01-1.51h-14.28l1.01,1.51a1,1,0,1,1-1.75.97l-0.99-1.49-1.25,2.49a1,1,0,1,1-1.75-.97l1.26-2.51H1479a2.006,2.006,0,0,1-2-2v-21a2.006,2.006,0,0,1,2-2h36a2.006,2.006,0,0,1,2,2v21A2.006,2.006,0,0,1,1515,4172Zm0-23h-36v21h36v-21Zm-12.14,14.51a0.868,0.868,0,0,1-.17.22,0.834,0.834,0,0,1-.12.08,0.333,0.333,0,0,1-.11.09c-0.03.02-.06,0.01-0.09,0.03a0.847,0.847,0,0,1-.17.04,0.682,0.682,0,0,1-.4,0,0.847,0.847,0,0,1-.17-0.04c-0.03-.02-0.06-0.01-0.09-0.03a0.538,0.538,0,0,1-.12-0.09,0.763,0.763,0,0,1-.11-0.08,0.868,0.868,0,0,1-.17-0.22c-0.01-.02-0.03-0.03-0.04-0.05l-4-7.03a0.924,0.924,0,0,1-.1-0.42,1,1,0,0,1-1,.99h-3v6a1,1,0,0,1-2,0v-6h-3a1,1,0,0,1,0-2h8a1,1,0,0,1,1,1,0.976,0.976,0,0,1,.55-0.91,1.01,1.01,0,0,1,1.36.44l3.09,5.2,3.09-5.2a1.01,1.01,0,0,1,1.36-.44,0.991,0.991,0,0,1,.45,1.34l-4,7.03C1502.89,4163.48,1502.87,4163.49,1502.86,4163.51Zm8.37-21.5h-1.16v-4.94h-1.76v-1.05H1513v1.05h-1.77v4.94Zm-5.36,0-1.63-2.57h-0.97v2.57h-1.15v-5.99h2.59a1.988,1.988,0,0,1,1.41.47,1.686,1.686,0,0,1-.64,2.82l1.73,2.7h-1.34Zm-1.22-4.96h-1.38v1.4h1.38A0.71,0.71,0,1,0,1504.65,4137.05Zm-6.01,3.51h-2.37l-0.55,1.45h-1.2l2.39-6h1.11l2.4,6h-1.23Zm-1.18-3.07-0.83,2.09h1.64Zm-5.8.34-1.28,1.85h-0.64l-1.31-1.85v4.18h-1.16v-5.99h1.15l1.62,2.38,1.62-2.38h1.14v5.99h-1.14v-4.18Zm-9.14.24a2.458,2.458,0,0,0,.46.17c0.15,0.04.44,0.13,0.61,0.18a3.8,3.8,0,0,1,1.21.6,1.382,1.382,0,0,1,.56,1.2,1.562,1.562,0,0,1-.63,1.31,2.544,2.544,0,0,1-1.59.47,3.594,3.594,0,0,1-2.13-.61v-1.24a3.131,3.131,0,0,0,.93.55,3.393,3.393,0,0,0,1.15.22,0.889,0.889,0,0,0,1.08-.67,0.5,0.5,0,0,0-.29-0.47,1.2,1.2,0,0,0-.32-0.15l-0.19-.07-0.45-.14-0.41-.14a3.339,3.339,0,0,1-.38-0.14,1.526,1.526,0,0,1-.36-0.17,1.782,1.782,0,0,1-.53-0.5,1.921,1.921,0,0,1-.19-0.8,1.426,1.426,0,0,1,.57-1.2,2.392,2.392,0,0,1,1.54-.44,3.643,3.643,0,0,1,1.83.47v1.15a3.3,3.3,0,0,0-1.81-.54c-0.63,0-.95.19-0.95,0.56A0.436,0.436,0,0,0,1482.52,4138.07Z" transform="translate(-1477 -4136)" style=""/>
    <path class="" d="M1478,4149l38-1v23h-38v-22Z" transform="translate(-1477 -4136)" style="opacity: 0.1;"/>
  </g>
</svg>
