<?xml version="1.0"?>
<svg xmlns="http://www.w3.org/2000/svg" height="40px" width="40px" viewBox="0 0 40 40">
  <g id="svg">
    <path id="Rounded_Rectangle_56" data-name="Rounded Rectangle 56" class="" d="M953,827a5,5,0,0,1-3,4.578V838a3,3,0,0,1-3,3v3a1,1,0,0,1-1,1h-4a1,1,0,0,1-1-1v-3H925v3a1,1,0,0,1-1,1h-4a1,1,0,0,1-1-1v-3h0a3,3,0,0,1-3-3v-6.422a4.99,4.99,0,0,1,.871-9.439l-0.833-4.876a0.984,0.984,0,0,1,.161-0.829A5.845,5.845,0,0,1,916,815v-2a8,8,0,0,1,8-8h18a8,8,0,0,1,8,8v2a5.845,5.845,0,0,1-.2,1.434,0.984,0.984,0,0,1,.161.829l-0.833,4.876A5,5,0,0,1,953,827Zm-10,16h2v-2h-2v2Zm-20-10v6h20v-7a2,2,0,0,0-2-2H925a2,2,0,0,0-2,2v1Zm-2,10h2v-2h-2v2Zm-6-16a3,3,0,0,0,3,3v8a1,1,0,0,0,1,1h2V827A3,3,0,0,0,915,827Zm33-10v-4a6,6,0,0,0-6-6H924a6,6,0,0,0-6,6v4h0l0.869,5.087A4.992,4.992,0,0,1,923,827v1.555a3.955,3.955,0,0,1,2-.555h16a3.955,3.955,0,0,1,2,.555V827a4.992,4.992,0,0,1,4.133-4.913L948,817h0Zm0,7a3,3,0,0,0-3,3v12h2a1,1,0,0,0,1-1v-7h0v-1A3,3,0,0,0,948,824Zm-9.218-3.4a0.981,0.981,0,0,1-1.382.176l-2.37-1.582a2.965,2.965,0,0,1-4.06,0l-2.37,1.582a0.981,0.981,0,0,1-1.382-.176,0.993,0.993,0,0,1,.19-1.387l2.638-1.761a2.263,2.263,0,0,1,0-.908l-2.638-1.761a0.993,0.993,0,0,1-.19-1.387,0.981,0.981,0,0,1,1.382-.176l2.37,1.582a2.965,2.965,0,0,1,4.06,0l2.37-1.582a0.981,0.981,0,0,1,1.382.176,0.993,0.993,0,0,1-.19,1.387l-2.638,1.761a2.263,2.263,0,0,1,0,.908l2.638,1.761A0.993,0.993,0,0,1,938.782,820.6ZM933,816a1,1,0,1,0,1,1A1,1,0,0,0,933,816Z" transform="translate(-913 -805)" style=""/>
    <path class="" d="M948,820v3l-2,1-2,1a7.377,7.377,0,0,0,0,2,16.792,16.792,0,0,1,0,3l-2-1H925l-2,1-1,1v-5l-1-2-2-1h-1l-1-5v-5l1-3,2-3,2-1h7l16,1,3,2,1,3v5Zm-15-5a2,2,0,1,0,2,2A2,2,0,0,0,933,815Zm11,25H922v-5h22v5Z" transform="translate(-913 -805)" style="opacity: 0.1;"/>
  </g>
</svg>
