<?xml version="1.0"?>
<svg xmlns="http://www.w3.org/2000/svg" height="40px" width="40.03px" viewBox="0 0 40.03 40">
  <g id="svg">
    <path id="Rounded_Rectangle_96_copy" data-name="Rounded Rectangle 96 copy" class="" d="M1015.41,836.37a5.39,5.39,0,0,1-3.41,1.543V839h0a5.983,5.983,0,0,1-11.17,3h-7.662A5.982,5.982,0,0,1,982,839h0v-1.087a5.38,5.38,0,0,1-3.407-1.543,5.5,5.5,0,0,1,0-7.778l4-4a5.364,5.364,0,0,1,2.265-1.343,11.015,11.015,0,0,1,.046-8.618,5.485,5.485,0,1,1,8.219-7.09,14.121,14.121,0,0,1,7.76,0,5.481,5.481,0,1,1,8.21,7.076,10.971,10.971,0,0,1,.05,8.633,5.4,5.4,0,0,1,2.27,1.343l4,4A5.514,5.514,0,0,1,1015.41,836.37ZM1006,843a4,4,0,1,0-4-4A4,4,0,0,0,1006,843Zm-18,0a4,4,0,1,0-4-4A4,4,0,0,0,988,843Zm0.5-36a3.5,3.5,0,0,0-3.5,3.5,3.445,3.445,0,0,0,.886,2.3,12.694,12.694,0,0,1,5.276-4.509A3.439,3.439,0,0,0,988.5,807Zm8.5,2c-6.075,0-11,4.477-11,10s4.925,10,11,10,11-4.477,11-10S1003.08,809,997,809Zm8.5-2a3.469,3.469,0,0,0-2.69,1.276,12.749,12.749,0,0,1,5.3,4.514,3.453,3.453,0,0,0,.89-2.29A3.5,3.5,0,0,0,1005.5,807Zm8.46,23.016-3.99-3.982a3.411,3.411,0,0,0-1.79-.928,13.548,13.548,0,0,1-22.357,0,3.4,3.4,0,0,0-1.795.928l-3.993,3.982a3.48,3.48,0,0,0,2.826,5.931A6.1,6.1,0,0,1,984.726,834h-0.149l2.713-2.713a1.006,1.006,0,0,1,1.423,1.423l-0.329.329A5.878,5.878,0,0,1,993.9,840h6.2a6.566,6.566,0,0,1-.1-1,5.98,5.98,0,0,1,5.62-5.961l-0.33-.329a1.005,1.005,0,0,1,1.42-1.423l2.71,2.713h-0.15a6.092,6.092,0,0,1,1.87,1.947,3.448,3.448,0,0,0,2.82-.989A3.485,3.485,0,0,0,1013.96,830.016ZM999.5,826a3.448,3.448,0,0,1-2.49-1.067,3.477,3.477,0,0,1-5.832-1.4A0.971,0.971,0,0,1,991,823a1,1,0,0,1,2,0h0.1a1.474,1.474,0,0,0,2.861-.311,1.989,1.989,0,1,1,2.079.012,1.474,1.474,0,0,0,2.859.3h0.1a1,1,0,0,1,2,0,0.921,0.921,0,0,1-.18.536A3.475,3.475,0,0,1,999.5,826Zm2-8a1.5,1.5,0,1,1,1.5-1.5A1.5,1.5,0,0,1,1001.5,818Zm-9,0a1.5,1.5,0,1,1,1.5-1.5A1.5,1.5,0,0,1,992.5,818Z" transform="translate(-977 -805)" style=""/>
    <path id="Ellipse_41_copy" data-name="Ellipse 41 copy" class="" d="M999,812c5.52,0,10,4.029,10,9s-4.48,9-10,9-10-4.029-10-9S993.477,812,999,812Zm8.5,25a3.5,3.5,0,1,1-3.5,3.5A3.5,3.5,0,0,1,1007.5,837Zm-18,0a3.5,3.5,0,1,1-3.5,3.5A3.5,3.5,0,0,1,989.5,837Z" transform="translate(-977 -805)" style="opacity: 0.1;"/>
  </g>
</svg>
