<?xml version="1.0"?>
<svg xmlns="http://www.w3.org/2000/svg" height="40px" width="40px" viewBox="0 0 40 40">
  <g id="svg">
    <path id="Rounded_Rectangle_55" data-name="Rounded Rectangle 55" class="" d="M310.943,827.747a1.1,1.1,0,0,1,.043.126l2.025,15.01a1,1,0,0,1-.856,1.131,0.958,0.958,0,0,1-.347-0.022,17.3,17.3,0,0,1-4.3.85,0.955,0.955,0,0,1-.941.073C305.75,844.969,304.892,845,304,845a24.505,24.505,0,0,1-7.808-1.008,0.958,0.958,0,0,1-.347.022,1,1,0,0,1-.856-1.131l2.025-15.01a1.1,1.1,0,0,1,.043-0.126C289.439,827.182,284,825.72,284,824v-3c0-1.641,4.943-3.049,12.008-3.666,0,0.056-.008.11-0.008,0.166a4.475,4.475,0,0,0,.341,1.716c-5.537.33-9.341,1-9.341,1.784,0,1.105,7.611,2,17,2s17-.895,17-2c0-.78-3.806-1.452-9.342-1.781A4.472,4.472,0,0,0,312,817.5c0-.054-0.006-0.106-0.008-0.159C319.055,817.957,324,819.36,324,821v3C324,825.72,318.561,827.182,310.943,827.747ZM304,843c0.632,0,1.246-.014,1.844-0.037l-0.861-10.845a1.01,1.01,0,0,1,.95-1.074,1.023,1.023,0,0,1,1.108.921l0.863,10.871a29.4,29.4,0,0,0,3.028-.4L309,828.144a0.978,0.978,0,0,1,.018-0.276c-1.608.083-3.284,0.132-5.022,0.132s-3.414-.049-5.022-0.132a0.978,0.978,0,0,1,.018.276l-1.928,14.288A37.952,37.952,0,0,0,304,843Zm18-20.265c-3.233,1.339-10.067,2.265-18,2.265s-14.767-.926-18-2.265V824h1c0,1.105,7.611,2,17,2s17-.895,17-2h1v-1.265ZM309,814l1,3a4,4,0,0,1-4,4h-4a4,4,0,0,1-4-4l1-3a1,1,0,0,1,1-1h0.736L300,810.133a0.99,0.99,0,1,1,1.96-.278L302.768,813H303v-5a1,1,0,0,1,2,0v5h0.193l1.827-7.148a1,1,0,0,1,1.981.277L307.244,813H308A1,1,0,0,1,309,814Zm-2,1h-4.852c-0.005,0-.011,0-0.016,0H301l-1,2a2,2,0,0,0,2,2h4a2,2,0,0,0,2-2Z" transform="translate(-284 -805)" style=""/>
    <path class="" d="M311.325,843.278l-7.156.882-6.96-.784-1.176-.686,2.059-15.879,11.861-.1,2.156,15.585Zm-4.8-23.231h-2.843l-3.137-.49-0.98-1.96a4.944,4.944,0,0,1-.392-1.275,8.473,8.473,0,0,1,1.274-1.96l7.45-.1,0.98,2.941-0.882,1.862Z" transform="translate(-284 -805)" style="opacity: 0.1;"/>
  </g>
</svg>
