<?xml version="1.0"?>
<svg xmlns="http://www.w3.org/2000/svg" height="40px" width="40px" viewBox="0 0 40 40">
  <g id="svg">
    <path id="Rounded_Rectangle_22" data-name="Rounded Rectangle 22" class="" d="M578,371h-4v19a2,2,0,0,1-2,2H548a2,2,0,0,1-2-2V371h-4a2,2,0,0,1-2-2v-5h0v-2a10,10,0,0,1,10-10h20a10,10,0,0,1,10,10v7A2,2,0,0,1,578,371Zm-4-2h4v-2h-4v2Zm-32,0h4v-2h-4v2Zm12.823-15a5.967,5.967,0,0,0,10.354,0H554.823ZM570,354h-2.611a7.96,7.96,0,0,1-14.778,0H550a8,8,0,0,0-8,8v3h4v-2a1,1,0,0,1,2,0v27h24V363a1,1,0,0,1,2,0v2h4v-3A8,8,0,0,0,570,354Zm-3.366,17.779-9.853,10.852a1.09,1.09,0,0,1-1.314.221,0.965,0.965,0,0,1-.846.062,1.007,1.007,0,0,1-.545-1.308L556.489,376H554a0.977,0.977,0,0,1-.287-0.058c-0.015,0-.03,0-0.044-0.006a0.073,0.073,0,0,1-.009,0,0.951,0.951,0,0,1-.263-0.154c-0.025-.019-0.054-0.031-0.077-0.052a0.96,0.96,0,0,1-.139-0.183,1.016,1.016,0,0,1-.087-0.13,0.994,0.994,0,0,1-.042-0.156,0.968,0.968,0,0,1-.047-0.231c0-.009,0-0.016,0-0.025a1,1,0,0,1,.022-0.109,0.913,0.913,0,0,1,.028-0.219l2.984-8.84a0.98,0.98,0,0,1,.5-0.7c0.023-.013.041-0.032,0.064-0.043s0.041-.01.061-0.017a0.965,0.965,0,0,1,.389-0.068H564a0.81,0.81,0,0,1,.1.02,0.73,0.73,0,0,1,.372.113,0.868,0.868,0,0,1,.152.077c0.022,0.017.032,0.042,0.053,0.061a1.114,1.114,0,0,1,.084.1,1.008,1.008,0,0,1,.142.212,0.925,0.925,0,0,1,.038.116,0.941,0.941,0,0,1,.05.25c0,0.019.011,0.034,0.011,0.053a0.87,0.87,0,0,1-.023.113,0.936,0.936,0,0,1-.039.195,0.977,0.977,0,0,1-.117.23c-0.013.02-.017,0.044-0.032,0.064l-0.066.082c-0.009.009-.014,0.019-0.023,0.028L562.056,370H566c0.021,0,.039.011,0.06,0.012a0.928,0.928,0,0,1,.664.254,0.915,0.915,0,0,1,.248.6A0.925,0.925,0,0,1,567,371a0.986,0.986,0,0,1-.337.737C566.651,371.75,566.647,371.766,566.634,371.779ZM560,372a0.988,0.988,0,0,1-.153-0.031,0.918,0.918,0,0,1-.193-0.039,0.884,0.884,0,0,1-.119-0.06,0.934,0.934,0,0,1-.176-0.088,0.817,0.817,0,0,1-.061-0.071s-0.009-.011-0.014-0.017a0.967,0.967,0,0,1-.207-1.077,0.151,0.151,0,0,0,.009-0.018,1,1,0,0,1,.106-0.209l2.727-3.39h-4.193l-2.363,7H558a1,1,0,0,1,.914,1.4l-1.56,3.624L563.732,372H560Z" transform="translate(-540 -352)" style=""/>
    <path class="" d="M573,370v-4h6v4h-6Zm-13-12a6.978,6.978,0,0,1-6.675-5h13.35A6.978,6.978,0,0,1,560,358Zm-19,8h6v4h-6v-4Zm16,0h7l-4,5h6l-11,11,3-7h-4Z" transform="translate(-540 -352)" style="opacity: 0.1;"/>
  </g>
</svg>
