<?xml version="1.0"?>
<svg xmlns="http://www.w3.org/2000/svg" height="40px" width="40px" viewBox="0 0 40 40">
  <g id="svg">
    <path class="" d="M747,974h-9.3l-0.831,2.371a0.958,0.958,0,0,1-1.254.574,0.86,0.86,0,0,1-.134-0.088A0.982,0.982,0,0,1,735,977H723a0.982,0.982,0,0,1-.485-0.143,0.86,0.86,0,0,1-.134.088,0.958,0.958,0,0,1-1.254-.574L720.3,974H711a2,2,0,0,1-2-2V952a2,2,0,0,1,2-2h36a2,2,0,0,1,2,2v20A2,2,0,0,1,747,974Zm-24.271,1.054A0.981,0.981,0,0,1,723,975h12a0.981,0.981,0,0,1,.271.054l0.37-1.054H722.359ZM747,952H711v20h36V952Zm-12.136,14.509a0.981,0.981,0,0,1-.175.218,1.09,1.09,0,0,1-.114.089,1.186,1.186,0,0,1-.112.086,0.941,0.941,0,0,1-.091.025,0.99,0.99,0,0,1-.174.047,1.032,1.032,0,0,1-.2.025,1.052,1.052,0,0,1-.2-0.025,1.04,1.04,0,0,1-.174-0.047c-0.029-.012-0.061-0.01-0.09-0.025a1.186,1.186,0,0,1-.112-0.086,1.09,1.09,0,0,1-.114-0.089,0.981,0.981,0,0,1-.175-0.218c-0.011-.018-0.028-0.029-0.038-0.048l-4-8.032a0.964,0.964,0,0,1-.1-0.421,1,1,0,0,1-1,.992h-3v7a1,1,0,0,1-2,0v-7h-3a1,1,0,0,1,0-2h8a0.8,0.8,0,1,0,1.549.085,1.024,1.024,0,0,1,1.365.442l3.086,6.2,3.086-6.2a1.024,1.024,0,0,1,1.365-.442,0.993,0.993,0,0,1,.448,1.344l-4,8.032C734.892,966.48,734.874,966.491,734.864,966.509ZM717,979h24a3,3,0,0,1,3,3v5a3,3,0,0,1-3,3H717a3,3,0,0,1-3-3v-5A3,3,0,0,1,717,979Zm-1,8a1,1,0,0,0,1,1h24a1,1,0,0,0,1-1v-5a1,1,0,0,0-1-1H717a1,1,0,0,0-1,1v5Zm5-2.5a3.5,3.5,0,1,1,3.5,3.5A3.5,3.5,0,0,1,721,984.5Zm3.5,1.5a1.5,1.5,0,1,0-1.5-1.5A1.5,1.5,0,0,0,724.5,986Zm6.5-4a1,1,0,1,1-1,1A1,1,0,0,1,731,982Zm0,3a1,1,0,1,1-1,1A1,1,0,0,1,731,985Z" transform="translate(-709 -950)" style=""/>
    <path class="" d="M725,980l-1,2-1,1-1,1v1l2,2h0v2s-7.031-.375-7,0-2.219-1.188-2-1,0.344-1.907,0-2-0.156-2.594,0-3,1-2,1-2l2-1h7Zm2,0h-2v2l2,1v3l-1,1h-1l-1,2h18l1-1v-7l-1-1H727Z" transform="translate(-709 -950)" style="opacity: 0.1;"/>
  </g>
</svg>
