<?xml version="1.0"?>
<svg xmlns="http://www.w3.org/2000/svg" height="40px" width="40px" viewBox="0 0 40 40">
  <g id="svg">
    <path id="Ellipse_1074_copy_6" data-name="Ellipse 1074 copy 6" class="" d="M588.957,3615.75a13.95,13.95,0,0,1-1.29,5.15A1.965,1.965,0,0,1,588,3622a2,2,0,0,1-2,2,2.88,2.88,0,0,1-.3-0.03,14.269,14.269,0,0,1-2.772,2.54,1.99,1.99,0,0,1-3.482,1.74,14.2,14.2,0,0,1-3.707.71,1.982,1.982,0,0,1-3.466.04H572a13.972,13.972,0,0,1-4.458-.74A1.992,1.992,0,0,1,564,3627a1.957,1.957,0,0,1,.073-0.51,14.306,14.306,0,0,1-2.781-2.52,2.775,2.775,0,0,1-.292.03,2,2,0,0,1-2-2,1.947,1.947,0,0,1,.285-1.01c-0.094,0-.189.01-0.285,0.01v-0.05a10,10,0,0,1-9-9.95v-2a10,10,0,0,1,9-9.95V3599c0.1,0,.191.01,0.285,0.01A1.947,1.947,0,0,1,559,3598a2,2,0,0,1,2-2,2.775,2.775,0,0,1,.292.03,14.306,14.306,0,0,1,2.781-2.52A1.957,1.957,0,0,1,564,3593a1.992,1.992,0,0,1,3.542-1.26A13.972,13.972,0,0,1,572,3591h0.277a1.982,1.982,0,0,1,3.465.04,13.435,13.435,0,0,1,3.711.71A1.967,1.967,0,0,1,581,3591a2,2,0,0,1,2,2,1.9,1.9,0,0,1-.066.48,14.286,14.286,0,0,1,2.766,2.55,2.9,2.9,0,0,1,.3-0.03,2,2,0,0,1,1.664,3.11,13.869,13.869,0,0,1,1.3,5.15A1.99,1.99,0,0,1,590,3606v8A1.992,1.992,0,0,1,588.957,3615.75Zm-29.623-14.72A8,8,0,0,0,552,3609v2a8,8,0,0,0,7.334,7.97A6.99,6.99,0,0,0,566,3612v-4A6.99,6.99,0,0,0,559.334,3601.03Zm10.527,6.51a7.977,7.977,0,0,0-4.278-5.66A8.936,8.936,0,0,1,568,3608v4a8.936,8.936,0,0,1-2.417,6.12,7.977,7.977,0,0,0,4.278-5.66A3.945,3.945,0,0,1,569.861,3607.54Zm11.627-12.61a1.969,1.969,0,0,1-.488.07,1.994,1.994,0,0,1-1.848-1.24,11.958,11.958,0,0,0-3.448-.73,1.983,1.983,0,0,1-3.427-.03H572a11.889,11.889,0,0,0-4.153.76A2,2,0,0,1,566,3595a1.776,1.776,0,0,1-.463-0.06,12.473,12.473,0,0,0-2.669,2.36,2,2,0,0,1,.132.7,1.96,1.96,0,0,1-.295,1.03,9.992,9.992,0,0,1,9.138,8.26,3.752,3.752,0,0,1,0,5.42,9.992,9.992,0,0,1-9.138,8.26A1.96,1.96,0,0,1,563,3622a2,2,0,0,1-.132.7,12.473,12.473,0,0,0,2.669,2.36A1.776,1.776,0,0,1,566,3625a2,2,0,0,1,1.847,1.24A11.889,11.889,0,0,0,572,3627h0.277a1.987,1.987,0,0,1,3.426-.04,11.942,11.942,0,0,0,3.447-.72A2.009,2.009,0,0,1,581,3625a1.985,1.985,0,0,1,.49.07,12.3,12.3,0,0,0,2.649-2.35,1.983,1.983,0,0,1,1.736-2.71,11.914,11.914,0,0,0,1.085-4.31,1.991,1.991,0,0,1-.96-1.7v-8a1.99,1.99,0,0,1,.964-1.7,11.824,11.824,0,0,0-1.087-4.31A2,2,0,0,1,584,3598a2.069,2.069,0,0,1,.137-0.72A12.275,12.275,0,0,0,581.488,3594.93ZM563.5,3607.85l-3.539,2.67c-0.116.85-.5,1.48-0.961,1.48a1.322,1.322,0,0,1-.911-1.26l-2.621-.87a1,1,0,0,1-.366-1.37,0.993,0.993,0,0,1,1.366-.36l1.768,0.59A0.977,0.977,0,0,1,559,3608a0.731,0.731,0,0,1,.558.34l2.942-2.22a1,1,0,0,1,1.366.37A0.992,0.992,0,0,1,563.5,3607.85Z" transform="translate(-550 -3590)" style=""/>
    <path class="" d="M564.758,3618H565v2h-2v-0.62a5.392,5.392,0,0,1-2.5.62c-3.59,0-6.5-3.58-6.5-8s2.91-8,6.5-8,6.5,3.58,6.5,8A8.818,8.818,0,0,1,564.758,3618Z" transform="translate(-550 -3590)" style="opacity: 0.1;"/>
  </g>
</svg>
