<svg width="248" height="278" viewBox="0 0 248 278" fill="none" xmlns="http://www.w3.org/2000/svg">
<ellipse cx="123.547" cy="154.786" rx="123.547" ry="123.006" fill="#8428F8"/>
<mask id="mask0_101_3704" style="mask-type:alpha" maskUnits="userSpaceOnUse" x="0" y="31" width="248" height="247">
<ellipse cx="123.547" cy="154.786" rx="123.547" ry="123.006" fill="#8428F8"/>
</mask>
<g mask="url(#mask0_101_3704)">
<path fill-rule="evenodd" clip-rule="evenodd" d="M123.756 19.2076C156.759 19.2076 183.513 45.9617 183.513 78.9646L183.514 85.5444C189.569 86.5608 194.184 91.8277 194.184 98.1723V113.112C194.184 119.57 189.402 124.912 183.186 125.79C180.981 146.924 167.76 164.782 149.367 173.52L149.366 193.143H153.634C196.066 193.143 230.465 227.541 230.465 269.974V279.578H17.0466V269.974C17.0466 227.541 51.4448 193.143 93.8771 193.143H98.1455L98.1455 173.52C79.7516 164.783 66.5298 146.924 64.3242 125.79C58.1091 124.912 53.3277 119.57 53.3277 113.112V98.1723C53.3277 91.8273 57.9425 86.5602 63.9988 85.5442L63.9986 78.9646C63.9986 45.9617 90.7527 19.2076 123.756 19.2076Z" fill="#D4A181"/>
<mask id="mask1_101_3704" style="mask-type:alpha" maskUnits="userSpaceOnUse" x="17" y="176" width="214" height="104">
<path fill-rule="evenodd" clip-rule="evenodd" d="M149.367 176.146C168.681 178.307 183.513 184.248 183.513 199.628L183.507 199.167C211.1 210.822 230.465 238.136 230.465 269.973V279.578H17.0466V269.973C17.0466 238.136 36.4115 210.822 64.0052 199.166C64.2984 184.128 79.0253 178.285 98.1453 176.146L98.1455 196.345C98.1455 210.489 109.612 221.955 123.756 221.955C137.9 221.955 149.366 210.489 149.366 196.345L149.367 176.146Z" fill="white"/>
</mask>
<g mask="url(#mask1_101_3704)">
<path fill-rule="evenodd" clip-rule="evenodd" d="M149.367 176.146C168.681 178.307 183.513 184.248 183.513 199.628L183.507 199.167C211.1 210.822 230.465 238.136 230.465 269.973V279.578H17.0466V269.973C17.0466 238.136 36.4115 210.822 64.0052 199.166C64.2984 184.128 79.0253 178.285 98.1453 176.146L98.1455 196.345C98.1455 210.489 109.612 221.955 123.756 221.955C137.9 221.955 149.366 210.489 149.366 196.345L149.367 176.146Z" fill="#48A0E1"/>
<path fill-rule="evenodd" clip-rule="evenodd" d="M91.7425 228.079L91.7429 279.578H84.2733L84.2723 224.249C86.6241 225.646 89.1245 226.928 91.7425 228.079ZM163.239 224.248L163.238 267.306C163.238 269.369 161.566 271.041 159.503 271.041C157.44 271.041 155.768 269.369 155.768 267.306L155.77 228.078C158.388 226.927 160.888 225.646 163.239 224.248Z" fill="#F4F4F4"/>
<path fill-rule="evenodd" clip-rule="evenodd" d="M167.55 175.776C183.61 178.814 194.717 184.866 194.717 196.673C194.717 217.708 159.463 234.76 123.756 234.76C88.0482 234.76 52.7941 217.708 52.7941 196.673C52.7941 184.866 63.9011 178.814 79.961 175.776C70.2675 179.351 63.9985 185.36 63.9985 195.36C63.9985 217.12 93.6862 234.76 123.756 234.76C153.825 234.76 183.513 217.12 183.513 195.36C183.513 185.567 177.501 179.602 168.148 176.001L167.55 175.776Z" fill="black" fill-opacity="0.16"/>
</g>
</g>
<path fill-rule="evenodd" clip-rule="evenodd" d="M110.95 119.514C110.95 124.229 116.683 128.051 123.756 128.051C130.828 128.051 136.561 124.229 136.561 119.514" fill="black" fill-opacity="0.16"/>
<mask id="mask2_101_3704" style="mask-type:alpha" maskUnits="userSpaceOnUse" x="103" y="137" width="41" height="21">
<path fill-rule="evenodd" clip-rule="evenodd" d="M103.607 139.925C104.736 150.054 113.326 157.929 123.756 157.929C134.218 157.929 142.829 150.005 143.915 139.832C144.002 139.013 143.088 137.655 141.942 137.655C126.049 137.655 113.872 137.655 105.708 137.655C104.555 137.655 103.494 138.912 103.607 139.925Z" fill="white"/>
</mask>
<g mask="url(#mask2_101_3704)">
<path fill-rule="evenodd" clip-rule="evenodd" d="M103.607 139.925C104.736 150.054 113.326 157.929 123.756 157.929C134.218 157.929 142.829 150.005 143.915 139.832C144.002 139.013 143.088 137.655 141.942 137.655C126.049 137.655 113.872 137.655 105.708 137.655C104.555 137.655 103.494 138.912 103.607 139.925Z" fill="black" fill-opacity="0.7"/>
<path fill-rule="evenodd" clip-rule="evenodd" d="M113.085 125.917H135.494C138.44 125.917 140.829 128.305 140.829 131.252V137.655C140.829 140.601 138.44 142.99 135.494 142.99H113.085C110.138 142.99 107.749 140.601 107.749 137.655V131.252C107.749 128.305 110.138 125.917 113.085 125.917Z" fill="white"/>
<path fill-rule="evenodd" clip-rule="evenodd" d="M129.091 149.393C135.574 149.393 140.829 154.648 140.829 161.131C140.829 167.613 135.574 172.869 129.091 172.869C127.17 172.869 125.357 172.407 123.756 171.589C122.155 172.407 120.342 172.869 118.42 172.869C111.938 172.869 106.682 167.613 106.682 161.131C106.682 154.648 111.938 149.393 118.42 149.393C120.342 149.393 122.155 149.854 123.756 150.673C125.357 149.854 127.17 149.393 129.091 149.393Z" fill="#FF4F6D"/>
</g>
<path fill-rule="evenodd" clip-rule="evenodd" d="M81.2428 100.784C83.2132 96.7301 87.6499 93.9039 92.8073 93.9039C97.9465 93.9039 102.37 96.7102 104.351 100.741C104.939 101.938 104.102 102.918 103.257 102.192C100.642 99.9434 96.9275 98.5391 92.8073 98.5391C88.816 98.5391 85.2055 99.857 82.6059 101.984C81.6554 102.761 80.6665 101.969 81.2428 100.784Z" fill="black" fill-opacity="0.6"/>
<path fill-rule="evenodd" clip-rule="evenodd" d="M143.134 100.784C145.105 96.7301 149.541 93.9039 154.699 93.9039C159.838 93.9039 164.261 96.7102 166.242 100.741C166.831 101.938 165.993 102.918 165.149 102.192C162.533 99.9434 158.819 98.5391 154.699 98.5391C150.707 98.5391 147.097 99.857 144.497 101.984C143.547 102.761 142.558 101.969 143.134 100.784Z" fill="black" fill-opacity="0.6"/>
<path d="M80.6774 86.6035C84.855 80.7252 96.3078 77.429 106.173 79.8516C107.318 80.1327 108.474 79.4327 108.755 78.288C109.036 77.1433 108.336 75.9875 107.191 75.7064C95.7342 72.8929 82.4721 76.7099 77.1982 84.1309C76.5154 85.0917 76.7407 86.4241 77.7015 87.1068C78.6623 87.7896 79.9946 87.5643 80.6774 86.6035Z" fill="black" fill-opacity="0.6"/>
<path d="M166.834 86.6035C162.656 80.7252 151.204 77.429 141.338 79.8516C140.194 80.1327 139.038 79.4327 138.757 78.288C138.476 77.1433 139.176 75.9875 140.32 75.7064C151.777 72.8929 165.039 76.7099 170.313 84.1309C170.996 85.0917 170.771 86.4241 169.81 87.1068C168.849 87.7896 167.517 87.5643 166.834 86.6035Z" fill="black" fill-opacity="0.6"/>
<mask id="mask3_101_3704" style="mask-type:alpha" maskUnits="userSpaceOnUse" x="35" y="0" width="168" height="184">
<path fill-rule="evenodd" clip-rule="evenodd" d="M123.756 0C163.831 0 196.933 29.8534 202.038 68.5345C202.319 70.6672 202.537 78.2785 202.69 91.3684C202.711 91.4803 202.72 91.5679 202.72 91.636V149.393C202.72 168.251 187.432 183.539 168.573 183.539H149.366V173.521C168.073 164.634 181.43 146.314 183.29 124.708C189.455 123.785 194.184 118.467 194.184 112.044V98.1723C194.184 96.5544 193.883 94.4517 193.336 92.1996C174.248 86.4547 155.448 69.0333 144.504 44.4531C144.213 43.7991 143.929 43.1443 143.653 42.489L143.244 41.5066L143.008 42.1247C138.058 54.8628 128.927 64.1318 115.616 69.9318C120.815 63.5858 125.243 56.1934 128.9 47.7546C120.388 56.831 109.321 65.6165 96.3757 73.0907C83.1752 80.712 69.7709 85.9594 57.4576 88.7541C54.9183 91.0935 53.3277 94.4471 53.3277 98.1723V112.044C53.3277 118.467 58.0558 123.785 64.2211 124.708C66.0813 146.314 79.4385 164.634 98.1454 173.521V183.539H53.3277C48.613 183.539 44.7909 179.717 44.7909 175.003L44.7916 89.9987C43.0027 89.8465 41.3318 89.5111 40.3662 88.8599C36.9958 86.5871 35.1871 82.2201 35.1871 77.364C35.1871 69.9973 39.9647 64.0254 45.858 64.0254C53.1812 27.5611 85.2498 0 123.756 0Z" fill="white"/>
</mask>
<g mask="url(#mask3_101_3704)">
<path fill-rule="evenodd" clip-rule="evenodd" d="M123.756 0C163.831 0 196.933 29.8534 202.038 68.5345C202.319 70.6672 202.537 78.2785 202.69 91.3684C202.711 91.4803 202.72 91.5679 202.72 91.636V149.393C202.72 168.251 187.432 183.539 168.573 183.539H149.366V173.521C168.073 164.634 181.43 146.314 183.29 124.708C189.455 123.785 194.184 118.467 194.184 112.044V98.1723C194.184 96.5544 193.883 94.4517 193.336 92.1996C174.248 86.4547 155.448 69.0333 144.504 44.4531C144.213 43.7991 143.929 43.1443 143.653 42.489L143.244 41.5066L143.008 42.1247C138.058 54.8628 128.927 64.1318 115.616 69.9318C120.815 63.5858 125.243 56.1934 128.9 47.7546C120.388 56.831 109.321 65.6165 96.3757 73.0907C83.1752 80.712 69.7709 85.9594 57.4576 88.7541C54.9183 91.0935 53.3277 94.4471 53.3277 98.1723V112.044C53.3277 118.467 58.0558 123.785 64.2211 124.708C66.0813 146.314 79.4385 164.634 98.1454 173.521V183.539H53.3277C48.613 183.539 44.7909 179.717 44.7909 175.003L44.7916 89.9987C43.0027 89.8465 41.3318 89.5111 40.3662 88.8599C36.9958 86.5871 35.1871 82.2201 35.1871 77.364C35.1871 69.9973 39.9647 64.0254 45.858 64.0254C53.1812 27.5611 85.2498 0 123.756 0Z" fill="#100D0F"/>
</g>
<g opacity="0.44">
<path opacity="0.44" fill-rule="evenodd" clip-rule="evenodd" d="M123.756 0C167.367 0 202.72 35.3537 202.72 78.9647V94.0651C180.627 91.9773 157.243 73.0651 144.504 44.4531C144.068 43.4721 143.648 42.4894 143.244 41.5056C138.351 54.5629 129.142 64.0383 115.616 69.9318C120.815 63.5858 125.243 56.1934 128.9 47.7546C120.388 56.831 109.321 65.6165 96.3757 73.0907C79.6616 82.7406 62.6208 88.5847 47.8815 90.4628C47.2265 90.6203 46.55 90.7026 45.858 90.7026C45.8392 90.7026 45.8204 90.7026 45.8015 90.7025C45.4634 90.7381 45.1265 90.7709 44.7909 90.8016L44.7904 90.6367C39.3983 89.9672 35.1871 84.2803 35.1871 77.364C35.1871 69.9973 39.9647 64.0254 45.858 64.0254C45.9735 64.0254 46.0885 64.0277 46.2031 64.0322C53.1809 27.5613 85.2496 0 123.756 0Z" fill="#100D0F"/>
</g>
</svg>
